<svg width="341" height="64" viewBox="0 0 341 64" fill="none" xmlns="http://www.w3.org/2000/svg">
<path d="M28.4066 11.0535C45.4188 11.0535 49.2 11.4803 52.3099 13.8582C55.4198 16.2363 56.3353 20.3224 56.3353 31.9695C56.3353 43.6775 55.4198 47.7632 52.3099 50.1414C49.2 52.5194 45.3582 52.946 28.5286 52.946C11.3935 52.946 7.6122 52.5195 4.50226 50.1414C1.33142 47.7022 0.477844 43.6771 0.477844 31.7253C0.477855 20.3834 1.39234 16.2363 4.50226 13.8582C7.61218 11.48 11.4545 11.0535 28.4066 11.0535ZM86.4847 11.0535C103.497 11.0535 107.278 11.4803 110.388 13.8582C113.498 16.2363 114.413 20.3224 114.413 31.9695C114.413 43.6775 113.498 47.7632 110.388 50.1414C107.278 52.5194 103.436 52.946 86.6068 52.946C69.4716 52.946 65.6903 52.5195 62.5804 50.1414C59.4095 47.7022 58.556 43.6772 58.556 31.7253C58.556 20.3833 59.4705 16.2363 62.5804 13.8582C65.6903 11.48 69.5326 11.0535 86.4847 11.0535ZM160.478 21.2371H129.867V28.9207H159.014L158.953 38.2507H129.867V52.3367H117.488V11.6638H160.478V21.2371ZM28.4066 21.6033C19.9915 21.6033 18.2839 21.6643 16.5765 22.1521C13.5275 22.9448 12.8568 24.8349 12.8568 33.0671C12.8568 38.1282 13.2834 39.7748 14.6859 40.9333C16.3323 42.2139 18.2841 42.3972 28.5286 42.3972C38.4675 42.3972 40.5409 42.1528 42.1263 40.9333C43.5288 39.8357 43.9564 38.067 43.9564 33.1277C43.9563 27.274 43.6506 24.9569 42.553 23.5544C41.2725 21.7862 39.8701 21.6033 28.4066 21.6033ZM86.4847 21.6033C78.0696 21.6033 76.362 21.6643 74.6546 22.1521C71.6056 22.9448 70.9349 24.8349 70.9349 33.0671C70.9349 38.1282 71.3615 39.7748 72.764 40.9333C74.4104 42.2139 76.3622 42.3972 86.6068 42.3972C96.5456 42.3972 98.619 42.1528 100.204 40.9333C101.607 39.8357 102.034 38.067 102.034 33.1277C102.034 27.2739 101.729 24.9569 100.631 23.5544C99.3506 21.7862 97.9483 21.6033 86.4847 21.6033Z" fill="#02234F"/>
<path d="M203.667 10.6667C220.723 10.6667 224.514 11.0947 227.632 13.479C230.75 15.8633 231.667 19.9593 231.667 31.6362C231.667 43.3742 230.75 47.4702 227.632 49.8545C224.514 52.2388 220.662 52.6667 203.789 52.6667C186.61 52.6667 182.819 52.2388 179.702 49.8545C176.523 47.4091 175.667 43.3742 175.667 31.3916C175.667 20.0205 176.584 15.8633 179.702 13.479C182.819 11.0947 186.671 10.6667 203.667 10.6667ZM203.667 21.2432C195.23 21.2432 193.518 21.3043 191.806 21.7934C188.75 22.5881 188.077 24.4833 188.077 32.7366C188.077 37.8109 188.505 39.4615 189.911 40.6231C191.562 41.9069 193.518 42.0903 203.789 42.0903C213.754 42.0903 215.833 41.8458 217.422 40.6231C218.828 39.5226 219.256 37.7497 219.256 32.7978C219.256 26.9288 218.95 24.6056 217.85 23.1995C216.566 21.4266 215.16 21.2432 203.667 21.2432Z" fill="url(#paint0_linear_2682_7541)"/>
<path d="M203.667 21.2432C195.23 21.2432 193.518 21.3043 191.806 21.7934C188.75 22.5881 188.077 24.4833 188.077 32.7366C188.077 37.8109 188.505 39.4615 189.911 40.6231C191.562 41.9069 193.518 42.0903 203.789 42.0903C213.754 42.0903 215.833 41.8458 217.422 40.6231C218.828 39.5226 219.256 37.7497 219.256 32.7978C219.256 26.9288 218.95 24.6056 217.85 23.1995C216.566 21.4266 215.16 21.2432 203.667 21.2432Z" fill="url(#paint1_linear_2682_7541)"/>
<path d="M201.733 28.4915C203.067 25.6425 208.214 26.872 209.867 28.4202L219.666 33.8645L219.85 33.9797C220.731 34.5935 221.022 35.7875 220.489 36.7463C219.956 37.705 218.789 38.089 217.803 37.6653L217.608 37.5686L209.732 33.1936L209.072 38.6614L209.21 40.9504C210.07 39.3755 210.941 37.8608 212.06 36.1262L215.763 38.2053C213.927 41.0302 212.803 43.2045 211.292 46.0364L211.152 46.2991L210.946 46.512C210.005 47.4857 208.139 48.8122 205.954 48.6223C203.611 48.4183 202.011 46.6515 201.155 43.9202L201.136 43.9172C201.136 43.9172 202.236 48.5003 201.135 43.9182C201.111 43.8185 201.089 43.7176 201.066 43.6174C201.035 43.5076 201.002 43.3971 200.973 43.2844L200.898 42.9817L200.859 42.7688C200.85 42.6973 200.845 42.6258 200.843 42.5549C200.031 38.3378 200.094 33.7236 201.733 28.4915ZM222.755 21.9309C223.513 21.1704 224.739 21.0928 225.59 21.7844C226.441 22.4763 226.615 23.6917 226.025 24.5891L225.898 24.7649C223.404 27.8339 221.441 30.3257 219.852 32.4309L216.126 30.3391C217.811 28.091 219.907 25.4171 222.609 22.092L222.755 21.9309ZM210.27 17.9192C212.669 17.9192 214.614 19.8646 214.614 22.2639C214.614 24.6631 212.669 26.6077 210.27 26.6077C207.87 26.6075 205.926 24.663 205.926 22.2639C205.926 19.8647 207.87 17.9194 210.27 17.9192Z" fill="#F9FFFE"/>
<path d="M244.988 15.5663H267.879L274.01 21.6978V45.2018L267.879 51.3333H244.988V15.5663ZM264.455 45.4062L267.061 42.8003V24.0993L264.455 21.4934H251.937V45.4062H264.455ZM277.611 20.5737V17.3036L279.962 14.9532H283.538L285.889 17.3036V20.5737L283.538 22.9241H279.962L277.611 20.5737ZM278.378 25.8876H285.122V51.3333H278.378V25.8876ZM286.679 25.8876H293.679L299.606 43.6178H299.81L305.737 25.8876H312.738L302.978 51.3333H296.438L286.679 25.8876ZM312.738 46.1215V31.2016L318 25.8876H332.358L337.672 31.2016V40.8586H319.482V44.1288L321.117 45.8149H329.446L330.979 44.231V42.9025H337.621V46.2237L332.563 51.3333H317.898L312.738 46.1215ZM330.928 36.1579V33.1943L329.19 31.406H321.219L319.482 33.1943V36.1579H330.928Z" fill="url(#paint2_linear_2682_7541)"/>
<defs>
<linearGradient id="paint0_linear_2682_7541" x1="203.781" y1="10.6667" x2="203.781" y2="52.6667" gradientUnits="userSpaceOnUse">
<stop stop-color="#69AFFF"/>
<stop offset="1" stop-color="#2683EE"/>
</linearGradient>
<linearGradient id="paint1_linear_2682_7541" x1="203.781" y1="10.6667" x2="203.781" y2="52.6667" gradientUnits="userSpaceOnUse">
<stop stop-color="#69AFFF"/>
<stop offset="1" stop-color="#2683EE"/>
</linearGradient>
<linearGradient id="paint2_linear_2682_7541" x1="291.369" y1="1.33325" x2="291.369" y2="67.3333" gradientUnits="userSpaceOnUse">
<stop stop-color="#69AFFF"/>
<stop offset="1" stop-color="#2683EE"/>
</linearGradient>
</defs>
</svg>
