<svg width="529" height="64" viewBox="0 0 529 64" fill="none" xmlns="http://www.w3.org/2000/svg">
<path d="M28.7397 11.0535C45.752 11.0535 49.5332 11.4803 52.6431 13.8582C55.753 16.2363 56.6685 20.3224 56.6685 31.9695C56.6685 43.6775 55.753 47.7632 52.6431 50.1414C49.5332 52.5194 45.6914 52.946 28.8618 52.946C11.7266 52.946 7.94539 52.5195 4.83545 50.1414C1.66461 47.7022 0.811035 43.6771 0.811035 31.7253C0.811046 20.3834 1.72553 16.2363 4.83545 13.8582C7.94537 11.48 11.7877 11.0535 28.7397 11.0535ZM86.8179 11.0535C103.83 11.0535 107.611 11.4802 110.721 13.8582C113.831 16.2363 114.746 20.3224 114.746 31.9695C114.746 43.6775 113.831 47.7632 110.721 50.1414C107.611 52.5194 103.77 52.946 86.9399 52.946C69.8048 52.946 66.0235 52.5195 62.9136 50.1414C59.7427 47.7022 58.8892 43.6773 58.8892 31.7253C58.8892 20.3833 59.8036 16.2363 62.9136 13.8582C66.0235 11.4801 69.8659 11.0535 86.8179 11.0535ZM160.811 21.2371H130.2V28.9207H159.347L159.287 38.2507H130.2V52.3367H117.821V11.6638H160.811V21.2371ZM28.7397 21.6033C20.3247 21.6033 18.6171 21.6643 16.9097 22.1521C13.8607 22.9448 13.1899 24.8349 13.1899 33.0671C13.1899 38.1282 13.6166 39.7748 15.019 40.9333C16.6655 42.2139 18.6173 42.3972 28.8618 42.3972C38.8007 42.3972 40.8741 42.1528 42.4595 40.9333C43.862 39.8357 44.2896 38.067 44.2896 33.1277C44.2895 27.274 43.9838 24.9569 42.8862 23.5544C41.6057 21.7862 40.2033 21.6033 28.7397 21.6033ZM86.8179 21.6033C78.403 21.6033 76.6952 21.6643 74.9878 22.1521C71.9388 22.9448 71.2681 24.8349 71.2681 33.0671C71.2681 38.1283 71.6947 39.7748 73.0972 40.9333C74.7436 42.2139 76.6954 42.3972 86.9399 42.3972C96.8788 42.3972 98.9522 42.1528 100.538 40.9333C101.94 39.8357 102.368 38.067 102.368 33.1277C102.368 27.2739 102.062 24.9569 100.964 23.5544C99.6838 21.7861 98.2815 21.6033 86.8179 21.6033Z" fill="#02234F"/>
<path d="M204 10.6667C221.057 10.6667 224.847 11.0947 227.965 13.479C231.083 15.8633 232 19.9593 232 31.6362C232 43.3742 231.083 47.4702 227.965 49.8545C224.847 52.2388 220.996 52.6667 204.122 52.6667C186.943 52.6667 183.153 52.2388 180.035 49.8545C176.856 47.4091 176 43.3742 176 31.3916C176 20.0205 176.917 15.8633 180.035 13.479C183.153 11.0947 187.004 10.6667 204 10.6667ZM204 21.2432C195.563 21.2432 193.852 21.3043 192.14 21.7934C189.083 22.5881 188.41 24.4833 188.41 32.7366C188.41 37.8109 188.838 39.4615 190.245 40.6231C191.895 41.9069 193.852 42.0903 204.122 42.0903C214.087 42.0903 216.166 41.8458 217.755 40.6231C219.162 39.5226 219.59 37.7497 219.59 32.7978C219.59 26.9288 219.284 24.6056 218.183 23.1995C216.9 21.4266 215.493 21.2432 204 21.2432Z" fill="url(#paint0_linear_2684_4274)"/>
<path d="M204 21.2432C195.563 21.2432 193.852 21.3043 192.14 21.7934C189.083 22.5881 188.41 24.4833 188.41 32.7366C188.41 37.8109 188.838 39.4615 190.245 40.6231C191.895 41.9069 193.852 42.0903 204.122 42.0903C214.087 42.0903 216.166 41.8458 217.755 40.6231C219.162 39.5226 219.59 37.7497 219.59 32.7978C219.59 26.9288 219.284 24.6056 218.183 23.1995C216.9 21.4266 215.493 21.2432 204 21.2432Z" fill="url(#paint1_linear_2684_4274)"/>
<path d="M222.425 19.9394C222.425 18.1395 220.952 16.6667 219.152 16.6667C217.352 16.6667 215.879 18.1395 215.879 19.9394C215.879 21.7394 217.352 23.2121 219.152 23.2121C220.952 23.2121 222.425 21.7394 222.425 19.9394ZM227.334 24.8485H217.516L206.061 16.6667L203.918 19.1213L210.741 24.0303H206.061L193.298 16.6667L191.334 18.9576L205.243 29.7575L206.061 46.121H209.334L210.152 29.7575L215.879 28.1212H227.334V24.8485Z" fill="#F9FFFE"/>
<g clip-path="url(#clip0_2684_4274)">
<path fill-rule="evenodd" clip-rule="evenodd" d="M211.906 45.1346C211.363 45.1346 210.919 45.5787 210.919 46.1216C210.919 46.6644 210.474 47.1086 209.932 47.1086H204.01C203.467 47.1086 203.023 47.5527 203.023 48.0956C203.023 48.6384 203.467 49.0826 204.01 49.0826H209.932C211.566 49.0826 212.893 47.7563 212.893 46.1216C212.893 45.5787 212.448 45.1346 211.906 45.1346Z" fill="#F9FFFE"/>
</g>
<path d="M245.782 15.5663H271.125V21.4423H252.731V31.3549H268.673V37.2309H252.731V51.3333H245.782V15.5663ZM272.667 20.5737V17.3036L275.017 14.9532H278.594L280.944 17.3036V20.5737L278.594 22.9241H275.017L272.667 20.5737ZM273.433 25.8876H280.178V51.3333H273.433V25.8876ZM309.428 25.8876V57.1582L303.91 62.6254H290.063L285.311 57.9246V54.4501H292.056V55.983L293.026 57.0049H300.946L302.683 55.2165V48.012L299.158 51.3333H289.552L284.289 46.0193V31.2016L289.552 25.8876H299.567L303.194 29.3621V25.8876H309.428ZM302.683 34.7272L299.209 31.6103H292.975L291.034 33.6031V43.6178L292.975 45.6105H298.545L302.683 41.3696V34.7272ZM313.238 45.9682V25.8876H319.982V43.8733L321.72 45.6105H325.807L330.815 40.6032V25.8876H337.559V51.3333H331.326V46.9901L326.931 51.3333H318.603L313.238 45.9682ZM341.638 25.8876H347.872V30.1286L351.959 25.8876H359.215V31.6103H353.339L348.382 36.7199V51.3333H341.638V25.8876ZM358.693 46.1215V31.2016L363.956 25.8876H378.314L383.628 31.2016V40.8586H365.438V44.1288L367.073 45.8149H375.401L376.934 44.231V42.9025H383.577V46.2237L378.518 51.3333H363.854L358.693 46.1215ZM376.883 36.1579V33.1943L375.146 31.406H367.175L365.438 33.1943V36.1579H376.883ZM398.316 45.8149V40.7054H405.163V43.72L406.849 45.4062H417.426L419.163 43.6689V37.7418L417.477 36.0557H403.937L398.418 30.5373V21.0846L403.937 15.5663H420.083L425.601 21.0846V26.2453H418.754V23.1796L417.068 21.4934H406.951L405.265 23.1796V28.4424L406.951 30.1286H420.492L426.01 35.6469V45.7127L420.389 51.3333H403.834L398.316 45.8149ZM429.317 14.851H436.061V35.2381H440.507L446.996 25.8876H454.456L445.974 38.1506L454.967 51.3333H447.507L440.353 40.9608H436.061V51.3333H429.317V14.851ZM454.499 46.6325V40.8076L459.2 36.1068H472.127V32.8877L470.543 31.3038H462.879L461.346 32.8877V34.3184H454.704V31.406L460.171 25.8876H473.302L478.77 31.406V51.3333H472.689V47.7055L468.908 51.3333H459.2L454.499 46.6325ZM468.448 46.1215L472.127 42.5959V40.9097H462.521L461.142 42.2893V44.8441L462.419 46.1215H468.448ZM484.412 46.1215V31.5592H479.814V25.8876H484.514V17.6101H491.157V25.8876H498.923V31.6103H491.157V43.9244L492.894 45.6105H498.923V51.3333H489.675L484.412 46.1215ZM499.966 46.1215V31.2016L505.229 25.8876H519.587L524.901 31.2016V40.8586H506.711V44.1288L508.346 45.8149H516.675L518.208 44.231V42.9025H524.85V46.2237L519.792 51.3333H505.127L499.966 46.1215ZM518.156 36.1579V33.1943L516.419 31.406H508.448L506.711 33.1943V36.1579H518.156Z" fill="url(#paint2_linear_2684_4274)"/>
<defs>
<linearGradient id="paint0_linear_2684_4274" x1="204.114" y1="10.6667" x2="204.114" y2="52.6667" gradientUnits="userSpaceOnUse">
<stop stop-color="#68CEFF"/>
<stop offset="1" stop-color="#00ACFF"/>
</linearGradient>
<linearGradient id="paint1_linear_2684_4274" x1="204.114" y1="10.6667" x2="204.114" y2="52.6667" gradientUnits="userSpaceOnUse">
<stop stop-color="#68CEFF"/>
<stop offset="1" stop-color="#00ACFF"/>
</linearGradient>
<linearGradient id="paint2_linear_2684_4274" x1="385.542" y1="1.33325" x2="385.542" y2="67.3333" gradientUnits="userSpaceOnUse">
<stop stop-color="#68CEFF"/>
<stop offset="1" stop-color="#00ACFF"/>
</linearGradient>
<clipPath id="clip0_2684_4274">
<rect width="27.6358" height="31.5838" fill="white" transform="matrix(-1 0 0 1 221.516 17.4988)"/>
</clipPath>
</defs>
</svg>
