<svg width="510" height="64" viewBox="0 0 510 64" fill="none" xmlns="http://www.w3.org/2000/svg">
<path d="M28.0733 11.0535C45.0855 11.0535 48.8668 11.4803 51.9766 13.8582C55.0866 16.2363 56.002 20.3224 56.002 31.9695C56.002 43.6775 55.0866 47.7632 51.9766 50.1414C48.8667 52.5194 45.0249 52.946 28.1954 52.946C11.0602 52.946 7.27895 52.5195 4.16901 50.1414C0.998168 47.7022 0.144592 43.6771 0.144592 31.7253C0.144604 20.3834 1.05908 16.2363 4.16901 13.8582C7.27893 11.48 11.1212 11.0535 28.0733 11.0535ZM86.1514 11.0535C103.164 11.0535 106.945 11.4802 110.055 13.8582C113.165 16.2363 114.079 20.3224 114.079 31.9695C114.079 43.6775 113.165 47.7632 110.055 50.1414C106.945 52.5194 103.103 52.946 86.2735 52.946C69.1383 52.946 65.3571 52.5195 62.2471 50.1414C59.0762 47.7022 58.2227 43.6773 58.2227 31.7253C58.2227 20.3833 59.1372 16.2363 62.2471 13.8582C65.357 11.4801 69.1995 11.0535 86.1514 11.0535ZM160.145 21.2371H129.533V28.9207H158.681L158.62 38.2507H129.533V52.3367H117.154V11.6638H160.145V21.2371ZM28.0733 21.6033C19.6582 21.6033 17.9506 21.6643 16.2432 22.1521C13.1943 22.9448 12.5235 24.8349 12.5235 33.0671C12.5235 38.1282 12.9502 39.7748 14.3526 40.9333C15.999 42.2139 17.9509 42.3972 28.1954 42.3972C38.1343 42.3972 40.2076 42.1528 41.793 40.9333C43.1956 39.8357 43.6231 38.067 43.6231 33.1277C43.6231 27.274 43.3174 24.9569 42.2198 23.5544C40.9393 21.7862 39.5369 21.6033 28.0733 21.6033ZM86.1514 21.6033C77.7365 21.6033 76.0287 21.6643 74.3214 22.1521C71.2724 22.9448 70.6016 24.8349 70.6016 33.0671C70.6016 38.1283 71.0282 39.7748 72.4307 40.9333C74.0772 42.2139 76.029 42.3972 86.2735 42.3972C96.2124 42.3972 98.2857 42.1528 99.8712 40.9333C101.274 39.8357 101.701 38.067 101.701 33.1277C101.701 27.2739 101.396 24.9569 100.298 23.5544C99.0174 21.7861 97.6151 21.6033 86.1514 21.6033Z" fill="#02234F"/>
<path d="M203.333 10.6667C220.39 10.6667 224.181 11.0947 227.298 13.479C230.416 15.8633 231.333 19.9593 231.333 31.6362C231.333 43.3742 230.416 47.4702 227.298 49.8545C224.181 52.2388 220.329 52.6667 203.456 52.6667C186.277 52.6667 182.486 52.2388 179.368 49.8545C176.189 47.4091 175.333 43.3742 175.333 31.3916C175.333 20.0205 176.25 15.8633 179.368 13.479C182.486 11.0947 186.338 10.6667 203.333 10.6667ZM203.333 21.2432C194.897 21.2432 193.185 21.3043 191.473 21.7934C188.416 22.5881 187.744 24.4833 187.744 32.7366C187.744 37.8109 188.172 39.4615 189.578 40.6231C191.229 41.9069 193.185 42.0903 203.456 42.0903C213.421 42.0903 215.499 41.8458 217.089 40.6231C218.495 39.5226 218.923 37.7497 218.923 32.7978C218.923 26.9288 218.617 24.6056 217.517 23.1995C216.233 21.4266 214.827 21.2432 203.333 21.2432Z" fill="url(#paint0_linear_2682_6732)"/>
<path d="M203.333 21.2432C194.897 21.2432 193.185 21.3043 191.473 21.7934C188.416 22.5881 187.744 24.4833 187.744 32.7366C187.744 37.8109 188.172 39.4615 189.578 40.6231C191.229 41.9069 193.185 42.0903 203.456 42.0903C213.421 42.0903 215.499 41.8458 217.089 40.6231C218.495 39.5226 218.923 37.7497 218.923 32.7978C218.923 26.9288 218.617 24.6056 217.517 23.1995C216.233 21.4266 214.827 21.2432 203.333 21.2432Z" fill="url(#paint1_linear_2682_6732)"/>
<g clip-path="url(#clip0_2682_6732)">
<path d="M209.688 32.33C209.57 32.5446 209.523 32.6868 209.641 32.915C209.788 33.1966 210.457 33.7296 210.71 34.0101C211.343 34.7105 211.585 35.1576 211.671 36.1172C211.919 38.8648 212.055 41.6286 212.347 44.3717C212.362 44.518 212.432 45.0738 212.491 45.1667C212.509 45.194 212.54 45.2163 212.566 45.2357L219.563 45.2486C220.737 45.5248 220.784 47.1314 219.576 47.4222C212.905 47.5503 206.215 47.4772 199.537 47.5318C198.083 47.5182 197.879 45.6006 199.289 45.3056L209.304 45.2659C209.461 45.246 209.581 45.2579 209.574 45.0675C209.566 44.8613 209.464 44.5335 209.431 44.3035C209.184 42.5612 208.969 40.8016 208.661 39.0739C208.631 38.9031 208.598 38.3659 208.489 38.2703C207.746 38.0296 206.993 37.8271 206.29 37.481C203.683 36.1953 202.815 33.2506 203.615 30.5553C203.723 30.1915 204.05 29.5898 204.106 29.2816C204.152 29.0277 204.047 28.9169 203.883 28.7444C203.324 28.1526 202.581 27.5606 201.979 26.9892C200.466 25.5544 198.964 24.1225 197.459 22.6755C196.298 21.4841 194.801 20.4157 193.685 19.2032C193.356 18.8458 193.224 18.3854 193.446 17.9318C193.607 17.6047 194.078 17.3335 194.441 17.4658C198.996 20.3789 203.511 23.3548 208.024 26.3315C208.756 26.7461 209.764 26.7459 210.489 26.3131C214.619 24.0286 218.681 21.6146 222.809 19.3266C223.179 19.1213 224.111 18.5365 224.472 18.4986C225.935 18.3448 226.612 20.147 225.471 21.0376C220.148 24.7154 214.815 28.3817 209.688 32.3286L209.688 32.33Z" fill="#F9FFFE"/>
<path d="M215.303 37.7089C216.826 37.7042 218.058 36.4651 218.053 34.9413C218.048 33.4175 216.809 32.186 215.286 32.1907C213.762 32.1954 212.53 33.4345 212.535 34.9584C212.54 36.4822 213.779 37.7137 215.303 37.7089Z" fill="#F9FFFE"/>
</g>
<path d="M244.144 45.4573V21.4423L250.02 15.5663H267.801L273.575 21.3401V26.8074H266.626V23.8949L264.224 21.4934H253.699L251.093 24.0993V42.8003L253.699 45.4062H264.326L266.83 42.9025V37.3331H259.166V31.406H273.575V45.4573L267.699 51.3333H250.02L244.144 45.4573ZM301.053 25.8876V57.1582L295.535 62.6254H282.148L277.396 57.9246V54.4501H284.14V55.983L285.111 57.0049H292.571L294.308 55.2165V47.5522L290.527 51.3333H282.097L276.629 45.8149V25.8876H283.374V43.8222L285.111 45.6105H289.556L294.308 40.5521V25.8876H301.053ZM305.129 25.8876H311.363V30.0775L315.501 25.8876H321.94L325.414 29.4132L328.889 25.8876H337.779L343.246 31.406V51.3333H336.502V33.3987L334.765 31.6103H330.472L327.764 34.3184V51.3333H321.224V33.2965L319.589 31.6103H316.523L311.874 36.3111V51.3333H305.129V25.8876ZM347.095 25.8876H353.329V30.1286L357.57 25.8876H365.796L371.468 31.5592V51.3333H364.723V33.3987L362.986 31.6103H358.694L353.84 36.5155V51.3333H347.095V25.8876ZM374.523 46.6325V40.8076L379.224 36.1068H392.151V32.8877L390.567 31.3038H382.903L381.37 32.8877V34.3184H374.728V31.406L380.195 25.8876H393.326L398.794 31.406V51.3333H392.713V47.7055L388.932 51.3333H379.224L374.523 46.6325ZM388.472 46.1215L392.151 42.5959V40.9097H382.545L381.166 42.2893V44.8441L382.443 46.1215H388.472ZM401.358 46.3259V43.209H408.001V44.6397L409.125 45.8149H417.403L418.527 44.6397V42.4426L417.351 41.2163H406.366L401.563 36.3622V30.7928L406.417 25.8876H419.702L424.658 30.895V34.0118H418.016V32.5812L416.892 31.406H409.329L408.205 32.5812V34.5739L409.38 35.8002H420.366L425.169 40.6543V46.4281L420.315 51.3333H406.315L401.358 46.3259ZM430.285 46.1215V31.5592H425.687V25.8876H430.388V17.6101H437.03V25.8876H444.797V31.6103H437.03V43.9244L438.767 45.6105H444.797V51.3333H435.548L430.285 46.1215ZM446.844 20.5737V17.3036L449.194 14.9532H452.771L455.121 17.3036V20.5737L452.771 22.9241H449.194L446.844 20.5737ZM447.61 25.8876H454.355V51.3333H447.61V25.8876ZM458.466 46.1215V31.0994L463.626 25.8876H477.627L482.89 31.2016V35.9024H476.145V33.3987L474.357 31.6103H466.999L465.21 33.3987V43.8222L466.999 45.6105H474.357L476.145 43.8222V41.3185H482.89V46.0193L477.627 51.3333H463.626L458.466 46.1215ZM484.147 46.3259V43.209H490.79V44.6397L491.914 45.8149H500.191L501.315 44.6397V42.4426L500.14 41.2163H489.155L484.352 36.3622V30.7928L489.206 25.8876H502.491L507.447 30.895V34.0118H500.805V32.5812L499.68 31.406H492.118L490.994 32.5812V34.5739L492.169 35.8002H503.155L507.958 40.6543V46.4281L503.104 51.3333H489.104L484.147 46.3259Z" fill="url(#paint2_linear_2682_6732)"/>
<defs>
<linearGradient id="paint0_linear_2682_6732" x1="219.632" y1="10.4839" x2="219.632" y2="52.6667" gradientUnits="userSpaceOnUse">
<stop stop-color="#D9BCF5"/>
<stop offset="1" stop-color="#9B59B6"/>
</linearGradient>
<linearGradient id="paint1_linear_2682_6732" x1="219.632" y1="10.4839" x2="219.632" y2="52.6667" gradientUnits="userSpaceOnUse">
<stop stop-color="#D9BCF5"/>
<stop offset="1" stop-color="#9B59B6"/>
</linearGradient>
<linearGradient id="paint2_linear_2682_6732" x1="454.124" y1="1.04591" x2="454.124" y2="67.3332" gradientUnits="userSpaceOnUse">
<stop stop-color="#D9BCF5"/>
<stop offset="1" stop-color="#9B59B6"/>
</linearGradient>
<clipPath id="clip0_2682_6732">
<rect width="32.7047" height="30.1227" fill="white" transform="translate(193.333 17.4346) rotate(-0.177282)"/>
</clipPath>
</defs>
</svg>
