<svg width="110" height="110" viewBox="0 0 110 110" fill="none" xmlns="http://www.w3.org/2000/svg">
<g id="mdi:axis-z-rotate-clockwise">
<path id="Vector" d="M64.1616 55.0033L45.8283 73.3366L64.1616 91.6699V77.4616C85.0616 75.3533 100.828 66.0949 100.828 55.0033C100.828 43.9116 85.0616 34.6533 64.1616 32.5449V41.6658C79.9741 43.2241 91.6616 48.5866 91.6616 55.0033C91.6616 61.4199 79.9741 66.7824 64.1616 68.3408V55.0033ZM18.3283 55.0033C18.3283 48.5866 30.0158 43.2241 45.8283 41.6658V32.5449C24.9283 34.6533 9.16162 43.9116 9.16162 55.0033C9.16162 64.9033 21.72 73.3366 39.32 76.5449L36.1116 73.3366L41.6116 67.7908C27.9991 65.8199 18.3283 60.8241 18.3283 55.0033ZM59.5783 9.16992H50.4116V59.5866L59.5783 50.4199V9.16992ZM59.5783 100.837V96.2533L50.4116 87.0866V100.837H59.5783Z" fill="white"/>
</g>
</svg>
