<svg width="161" height="43" viewBox="0 0 161 43" fill="none" xmlns="http://www.w3.org/2000/svg">
<g id="OOF">
<path id="Union" d="M28.0732 0.719727C45.0858 0.71973 48.8667 1.14643 51.9766 3.52441C55.0865 5.90261 56.002 9.98871 56.002 21.6357C56.0019 33.3435 55.0865 37.4295 51.9766 39.8076C48.8667 42.1855 45.0246 42.6123 28.1953 42.6123C11.0602 42.6123 7.27888 42.1858 4.16895 39.8076C0.998035 37.3685 0.144537 33.3434 0.144531 21.3916C0.144531 10.0495 1.05905 5.90261 4.16895 3.52441C7.27889 1.14623 11.121 0.719727 28.0732 0.719727ZM86.1514 0.719727C103.164 0.71973 106.945 1.14639 110.055 3.52441C113.165 5.90261 114.08 9.98871 114.08 21.6357C114.08 33.3434 113.165 37.4295 110.055 39.8076C106.945 42.1855 103.103 42.6123 86.2734 42.6123C69.1384 42.6123 65.357 42.1857 62.2471 39.8076C59.0762 37.3685 58.2227 33.3434 58.2227 21.3916C58.2227 10.0496 59.1372 5.90262 62.2471 3.52441C65.357 1.14623 69.1991 0.719727 86.1514 0.719727ZM160.145 10.9033H129.533V18.5869H158.681L158.62 27.916H129.533V42.0029H117.154V1.3291H160.145V10.9033ZM28.0732 11.2686C19.6584 11.2686 17.9505 11.3296 16.2432 11.8174C13.1942 12.6101 12.5234 14.5012 12.5234 22.7334C12.5235 27.7944 12.9501 29.441 14.3525 30.5996C15.999 31.8802 17.9509 32.0625 28.1953 32.0625C38.1339 32.0625 40.2076 31.8189 41.793 30.5996C43.1955 29.502 43.623 27.7333 43.623 22.7939C43.623 16.94 43.3173 14.6232 42.2197 13.2207C40.9392 11.4523 39.5371 11.2686 28.0732 11.2686ZM86.1514 11.2686C77.7365 11.2686 76.0286 11.3296 74.3213 11.8174C71.2723 12.6101 70.6016 14.5012 70.6016 22.7334C70.6016 27.7943 71.0282 29.441 72.4307 30.5996C74.0771 31.8801 76.0291 32.0625 86.2734 32.0625C96.2119 32.0625 98.2857 31.8189 99.8711 30.5996C101.274 29.502 101.701 27.7333 101.701 22.7939C101.701 16.9399 101.395 14.6222 100.298 13.2197C99.0174 11.4518 97.6141 11.2686 86.1514 11.2686Z" fill="#02234F"/>
</g>
</svg>
