<svg width="363" height="64" viewBox="0 0 363 64" fill="none" xmlns="http://www.w3.org/2000/svg">
<path d="M28.0732 11.0535C45.0855 11.0535 48.8667 11.4803 51.9766 13.8582C55.0865 16.2363 56.002 20.3224 56.002 31.9695C56.002 43.6775 55.0865 47.7632 51.9766 50.1414C48.8667 52.5194 45.0249 52.946 28.1953 52.946C11.0601 52.946 7.27889 52.5195 4.16895 50.1414C0.998107 47.7022 0.144531 43.6771 0.144531 31.7253C0.144543 20.3834 1.05902 16.2363 4.16895 13.8582C7.27887 11.48 11.1212 11.0535 28.0732 11.0535ZM86.1514 11.0535C103.164 11.0535 106.945 11.4802 110.055 13.8582C113.165 16.2363 114.08 20.3224 114.08 31.9695C114.08 43.6775 113.165 47.7632 110.055 50.1414C106.945 52.5194 103.103 52.946 86.2734 52.946C69.1383 52.946 65.357 52.5195 62.2471 50.1414C59.0762 47.7022 58.2227 43.6772 58.2227 31.7253C58.2227 20.3833 59.1371 16.2363 62.2471 13.8582C65.357 11.48 69.1993 11.0535 86.1514 11.0535ZM160.145 21.2371H129.533V28.9207H158.681L158.62 38.2507H129.533V52.3367H117.154V11.6638H160.145V21.2371ZM28.0732 21.6033C19.6582 21.6033 17.9506 21.6643 16.2432 22.1521C13.1942 22.9448 12.5234 24.8349 12.5234 33.0671C12.5234 38.1282 12.9501 39.7748 14.3525 40.9333C15.999 42.2139 17.9508 42.3972 28.1953 42.3972C38.1342 42.3972 40.2076 42.1528 41.793 40.9333C43.1955 39.8357 43.623 38.067 43.623 33.1277C43.623 27.274 43.3173 24.9569 42.2197 23.5544C40.9392 21.7862 39.5368 21.6033 28.0732 21.6033ZM86.1514 21.6033C77.7363 21.6033 76.0287 21.6643 74.3213 22.1521C71.2723 22.9448 70.6016 24.8349 70.6016 33.0671C70.6016 38.1283 71.0282 39.7748 72.4307 40.9333C74.0771 42.2139 76.0289 42.3972 86.2734 42.3972C96.2123 42.3972 98.2857 42.1528 99.8711 40.9333C101.274 39.8357 101.701 38.067 101.701 33.1277C101.701 27.2739 101.395 24.9569 100.298 23.5544C99.0173 21.7862 97.615 21.6033 86.1514 21.6033Z" fill="#02234F"/>
<path d="M203.333 10.6667C220.39 10.6667 224.18 11.0947 227.298 13.479C230.416 15.8633 231.333 19.9593 231.333 31.6362C231.333 43.3742 230.416 47.4702 227.298 49.8545C224.18 52.2388 220.329 52.6667 203.456 52.6667C186.276 52.6667 182.486 52.2388 179.368 49.8545C176.189 47.4091 175.333 43.3742 175.333 31.3916C175.333 20.0205 176.25 15.8633 179.368 13.479C182.486 11.0947 186.338 10.6667 203.333 10.6667ZM203.333 21.2432C194.897 21.2432 193.185 21.3043 191.473 21.7934C188.416 22.5881 187.744 24.4833 187.744 32.7366C187.744 37.8109 188.172 39.4615 189.578 40.6231C191.228 41.9069 193.185 42.0903 203.456 42.0903C213.421 42.0903 215.499 41.8458 217.089 40.6231C218.495 39.5226 218.923 37.7497 218.923 32.7978C218.923 26.9288 218.617 24.6056 217.517 23.1995C216.233 21.4266 214.827 21.2432 203.333 21.2432Z" fill="url(#paint0_linear_2684_4247)"/>
<path d="M203.333 21.2432C194.897 21.2432 193.185 21.3043 191.473 21.7934C188.416 22.5881 187.744 24.4833 187.744 32.7366C187.744 37.8109 188.172 39.4615 189.578 40.6231C191.228 41.9069 193.185 42.0903 203.456 42.0903C213.421 42.0903 215.499 41.8458 217.089 40.6231C218.495 39.5226 218.923 37.7497 218.923 32.7978C218.923 26.9288 218.617 24.6056 217.517 23.1995C216.233 21.4266 214.827 21.2432 203.333 21.2432Z" fill="url(#paint1_linear_2684_4247)"/>
<g clip-path="url(#clip0_2684_4247)">
<path d="M214.484 18.7109C214.22 18.7109 213.459 19.0572 213.459 19.0572L205.634 23.0145C204.59 23.4268 204.178 25.0898 204.805 25.9213L207.089 29.2379L197.738 34.0173L202.444 37.5507L208.338 34.0173L214.227 37.5507L216.587 35.1904L209.52 25.7682L215.544 22.1642C216.787 21.5376 216.587 20.5059 216.587 19.8793C216.578 19.3846 215.739 18.7109 214.484 18.7109ZM219.527 25.7776C218.985 25.7771 218.449 25.8833 217.949 26.0901C217.448 26.2969 216.993 26.6003 216.61 26.9828C216.227 27.3654 215.923 27.8197 215.715 28.3198C215.507 28.8199 215.4 29.356 215.4 29.8975C215.399 30.439 215.506 30.9752 215.712 31.4757C215.919 31.9761 216.222 32.431 216.605 32.8142C216.988 33.1974 217.442 33.5015 217.942 33.7092C218.442 33.9168 218.978 34.0239 219.52 34.0244C220.613 34.0253 221.662 33.5918 222.436 32.8192C223.21 32.0466 223.646 30.9981 223.647 29.9045C223.648 28.8109 223.214 27.7618 222.441 26.9878C221.669 26.2139 220.62 25.7785 219.527 25.7776ZM196.555 37.5554L190.667 41.0887V44.6221L196.555 41.0887L202.444 44.6221L208.338 41.0887L214.227 44.6221L218.933 41.0887L226 44.6221V41.0887L218.933 37.5554L214.227 41.0887L208.338 37.5554L202.444 41.0887L196.555 37.5554Z" fill="#F9FFFE"/>
</g>
<path d="M243.888 45.8149V40.7054H250.735V43.72L252.421 45.4062H262.998L264.735 43.6689V37.7418L263.049 36.0557H249.509L243.99 30.5373V21.0846L249.509 15.5663H265.655L271.173 21.0846V26.2453H264.326V23.1796L262.64 21.4934H252.523L250.837 23.1796V28.4424L252.523 30.1286H266.064L271.582 35.6469V45.7127L265.961 51.3333H249.406L243.888 45.8149ZM272.595 25.8876H279.442L282.355 41.9317H282.559L287.158 25.8876H293.289L297.53 41.9317H297.734L300.953 25.8876H307.8L301.209 51.3333H294.924L290.223 34.1651H290.019L285.012 51.3333H278.727L272.595 25.8876ZM309.564 20.5737V17.3036L311.914 14.9532H315.491L317.841 17.3036V20.5737L315.491 22.9241H311.914L309.564 20.5737ZM310.33 25.8876H317.075V51.3333H310.33V25.8876ZM321.697 25.8876H327.931V30.0775L332.069 25.8876H338.508L341.982 29.4132L345.457 25.8876H354.347L359.814 31.406V51.3333H353.07V33.3987L351.333 31.6103H347.041L344.332 34.3184V51.3333H337.792V33.2965L336.157 31.6103H333.091L328.442 36.3111V51.3333H321.697V25.8876Z" fill="url(#paint2_linear_2684_4247)"/>
<defs>
<linearGradient id="paint0_linear_2684_4247" x1="203.448" y1="10.6667" x2="203.448" y2="52.6667" gradientUnits="userSpaceOnUse">
<stop stop-color="#69AFFF"/>
<stop offset="1" stop-color="#2683EE"/>
</linearGradient>
<linearGradient id="paint1_linear_2684_4247" x1="203.448" y1="10.6667" x2="203.448" y2="52.6667" gradientUnits="userSpaceOnUse">
<stop stop-color="#69AFFF"/>
<stop offset="1" stop-color="#2683EE"/>
</linearGradient>
<linearGradient id="paint2_linear_2684_4247" x1="302.582" y1="1.33325" x2="302.582" y2="67.3333" gradientUnits="userSpaceOnUse">
<stop stop-color="#69AFFF"/>
<stop offset="1" stop-color="#2683EE"/>
</linearGradient>
<clipPath id="clip0_2684_4247">
<rect width="35.3333" height="35.3333" fill="white" transform="translate(190.667 14)"/>
</clipPath>
</defs>
</svg>
