<svg width="36" height="35" viewBox="0 0 36 35" fill="none" xmlns="http://www.w3.org/2000/svg">
<g id="mdi:android">
<g id="Vector">
<path d="M24.6202 21.8546C23.9569 21.8546 23.4089 21.3211 23.4089 20.6578C23.4089 19.9945 23.9569 19.4754 24.6202 19.4754C25.2834 19.4754 25.8314 19.9945 25.8314 20.6578C25.8314 21.3211 25.2834 21.8546 24.6202 21.8546ZM11.3545 21.8546C10.6912 21.8546 10.1433 21.3211 10.1433 20.6578C10.1433 19.9945 10.6912 19.4754 11.3545 19.4754C12.0178 19.4754 12.5513 19.9945 12.5513 20.6578C12.5513 21.3211 12.0178 21.8546 11.3545 21.8546ZM25.0527 14.6306L27.4607 10.4778C27.5905 10.2327 27.504 9.92991 27.2733 9.80014C27.0282 9.65594 26.7254 9.74246 26.6244 9.98759L24.1587 14.1836C22.2182 13.2957 20.1069 12.8429 17.9729 12.857C15.7668 12.857 13.6471 13.3328 11.8159 14.1692L9.37907 9.97317C9.34847 9.91478 9.30622 9.86329 9.25493 9.8219C9.20363 9.7805 9.14439 9.75007 9.08086 9.7325C9.01733 9.71493 8.95087 9.71059 8.88559 9.71974C8.82031 9.72889 8.75761 9.75135 8.70136 9.78572C8.45624 9.91549 8.38414 10.2183 8.51391 10.4634L10.9075 14.6161C6.79803 16.8655 3.97187 21.0327 3.55371 25.9641H32.3921C31.9884 21.0471 29.1766 16.88 25.0527 14.6306Z" fill="#16B8BB"/>
<path d="M24.6202 21.8546C23.9569 21.8546 23.4089 21.3211 23.4089 20.6578C23.4089 19.9945 23.9569 19.4754 24.6202 19.4754C25.2834 19.4754 25.8314 19.9945 25.8314 20.6578C25.8314 21.3211 25.2834 21.8546 24.6202 21.8546ZM11.3545 21.8546C10.6912 21.8546 10.1433 21.3211 10.1433 20.6578C10.1433 19.9945 10.6912 19.4754 11.3545 19.4754C12.0178 19.4754 12.5513 19.9945 12.5513 20.6578C12.5513 21.3211 12.0178 21.8546 11.3545 21.8546ZM25.0527 14.6306L27.4607 10.4778C27.5905 10.2327 27.504 9.92991 27.2733 9.80014C27.0282 9.65594 26.7254 9.74246 26.6244 9.98759L24.1587 14.1836C22.2182 13.2957 20.1069 12.8429 17.9729 12.857C15.7668 12.857 13.6471 13.3328 11.8159 14.1692L9.37907 9.97317C9.34847 9.91478 9.30622 9.86329 9.25493 9.8219C9.20363 9.7805 9.14439 9.75007 9.08086 9.7325C9.01733 9.71493 8.95087 9.71059 8.88559 9.71974C8.82031 9.72889 8.75761 9.75135 8.70136 9.78572C8.45624 9.91549 8.38414 10.2183 8.51391 10.4634L10.9075 14.6161C6.79803 16.8655 3.97187 21.0327 3.55371 25.9641H32.3921C31.9884 21.0471 29.1766 16.88 25.0527 14.6306Z" fill="url(#paint0_linear_370_5515)"/>
</g>
</g>
<defs>
<linearGradient id="paint0_linear_370_5515" x1="3.55371" y1="17.8396" x2="32.3921" y2="17.8396" gradientUnits="userSpaceOnUse">
<stop stop-color="#02234F"/>
<stop offset="1" stop-color="#0550B5"/>
</linearGradient>
</defs>
</svg>
