<svg width="35" height="35" viewBox="0 0 35 35" fill="none" xmlns="http://www.w3.org/2000/svg">
<g id="mdi:cellphone">
<g id="Vector">
<path d="M24.8528 27.4055H10.4336V7.21867H24.8528M24.8528 1.45099H10.4336C8.83311 1.45099 7.5498 2.7343 7.5498 4.33483V30.2894C7.5498 31.0542 7.85364 31.7877 8.39446 32.3286C8.93529 32.8694 9.6688 33.1732 10.4336 33.1732H24.8528C25.6177 33.1732 26.3512 32.8694 26.892 32.3286C27.4328 31.7877 27.7367 31.0542 27.7367 30.2894V4.33483C27.7367 3.56999 27.4328 2.83647 26.892 2.29565C26.3512 1.75482 25.6177 1.45099 24.8528 1.45099Z" fill="#16B8BB"/>
<path d="M24.8528 27.4055H10.4336V7.21867H24.8528M24.8528 1.45099H10.4336C8.83311 1.45099 7.5498 2.7343 7.5498 4.33483V30.2894C7.5498 31.0542 7.85364 31.7877 8.39446 32.3286C8.93529 32.8694 9.6688 33.1732 10.4336 33.1732H24.8528C25.6177 33.1732 26.3512 32.8694 26.892 32.3286C27.4328 31.7877 27.7367 31.0542 27.7367 30.2894V4.33483C27.7367 3.56999 27.4328 2.83647 26.892 2.29565C26.3512 1.75482 25.6177 1.45099 24.8528 1.45099Z" fill="url(#paint0_linear_370_5500)"/>
</g>
</g>
<defs>
<linearGradient id="paint0_linear_370_5500" x1="7.5498" y1="17.3121" x2="27.7367" y2="17.3121" gradientUnits="userSpaceOnUse">
<stop stop-color="#02234F"/>
<stop offset="1" stop-color="#0550B5"/>
</linearGradient>
</defs>
</svg>
