<svg width="29" height="30" viewBox="0 0 29 30" fill="none" xmlns="http://www.w3.org/2000/svg">
<g id="mdi:content-copy">
<path id="Vector" d="M22.9458 26.2243H9.66118V9.31669H22.9458M22.9458 6.90131H9.66118C9.02058 6.90131 8.40622 7.15579 7.95324 7.60876C7.50027 8.06173 7.2458 8.67609 7.2458 9.31669V26.2243C7.2458 26.8649 7.50027 27.4793 7.95324 27.9323C8.40622 28.3852 9.02058 28.6397 9.66118 28.6397H22.9458C23.5864 28.6397 24.2007 28.3852 24.6537 27.9323C25.1067 27.4793 25.3611 26.8649 25.3611 26.2243V9.31669C25.3611 8.67609 25.1067 8.06173 24.6537 7.60876C24.2007 7.15579 23.5864 6.90131 22.9458 6.90131ZM19.3227 2.07056H4.83042C4.18982 2.07056 3.57546 2.32503 3.12249 2.778C2.66952 3.23098 2.41504 3.84534 2.41504 4.48594V21.3936H4.83042V4.48594H19.3227V2.07056Z" fill="white"/>
</g>
</svg>
