<svg width="45" height="33" viewBox="0 0 45 33" fill="none" xmlns="http://www.w3.org/2000/svg">
<path id="Subtract" d="M22.5952 0.122253C35.9205 0.122259 38.882 0.456817 41.3179 2.31952C43.7535 4.18227 44.4702 7.38288 44.4702 16.5051C44.4702 25.6747 43.7535 28.8748 41.3179 30.7375C38.882 32.6002 35.8723 32.9348 22.6899 32.9348C9.26948 32.9347 6.30837 32.6001 3.87256 30.7375C1.38894 28.827 0.72022 25.6749 0.720215 16.3137C0.720215 7.42993 1.4367 4.18224 3.87256 2.31952C6.3084 0.456885 9.3176 0.122253 22.5952 0.122253ZM27.436 13.9904C26.1419 12.7819 22.1248 11.8236 21.0835 14.048C19.8022 18.1373 19.7545 21.7436 20.3892 25.0392C20.3908 25.0932 20.3948 25.1479 20.4019 25.2023L20.4321 25.3693L20.4897 25.6057C20.5125 25.6938 20.5384 25.7805 20.563 25.8664C20.5809 25.9441 20.5971 26.0224 20.6157 26.0998C21.4766 29.68 20.6167 26.0988 20.6167 26.0988L20.6323 26.1008C21.3008 28.2351 22.5515 29.6162 24.3823 29.7756C26.0889 29.9237 27.5465 28.8878 28.2817 28.1271L28.4429 27.9601L29.4351 26.0998C30.2313 24.6155 30.987 23.2648 32.0444 21.6379L29.1519 20.0129C28.2773 21.3696 27.5982 22.5554 26.9253 23.7873L26.8169 21.9933L27.3335 17.7209L33.4858 21.1389L33.6382 21.2141C34.4089 21.5453 35.3205 21.2453 35.7368 20.4963C36.1528 19.7472 35.926 18.8146 35.2378 18.3351L35.0942 18.2453L27.436 13.9904ZM39.7231 8.8078C39.0582 8.26753 38.1005 8.32902 37.5083 8.92303L37.394 9.04901C35.2823 11.6468 33.6449 13.736 32.3286 15.4924L35.2388 17.1262C36.4804 15.4814 38.0143 13.5347 39.9634 11.1369L40.063 11.0002C40.5236 10.2992 40.3879 9.34842 39.7231 8.8078ZM27.7524 5.78827C25.8783 5.78861 24.3589 7.3086 24.3589 9.1828C24.3591 11.0569 25.8784 12.576 27.7524 12.5764C29.6268 12.5764 31.1468 11.0571 31.147 9.1828C31.1469 7.30839 29.6269 5.78827 27.7524 5.78827Z" fill="#F9FFFE"/>
</svg>
