<svg width="32" height="24" viewBox="0 0 32 24" fill="none" xmlns="http://www.w3.org/2000/svg">
<g id="Subtract">
<path d="M15.9204 0.567627C25.2123 0.567627 27.2776 0.800986 28.9761 2.09985C30.6745 3.39873 31.1743 5.63041 31.1743 11.9915C31.1743 18.3854 30.6744 20.6164 28.9761 21.9153C27.2776 23.2141 25.1795 23.4475 15.9878 23.4475C6.62928 23.4475 4.56424 23.2142 2.86572 21.9153C1.13398 20.5831 0.66748 18.3852 0.66748 11.8577C0.667487 5.66317 1.16722 3.39872 2.86572 2.09985C4.56422 0.801007 6.66219 0.567634 15.9204 0.567627ZM19.2974 10.2385C18.3955 9.3956 15.5939 8.72714 14.8677 10.2786C13.9747 13.1287 13.9403 15.6425 14.3823 17.9397C14.3834 17.9781 14.3861 18.0171 14.3911 18.0559L14.4126 18.1721L14.4526 18.3372C14.4698 18.4035 14.4887 18.4689 14.5073 18.5334C14.5187 18.5829 14.5297 18.6326 14.5415 18.6819H14.5425L14.5513 18.6829C15.0173 20.1709 15.8901 21.1331 17.1665 21.2444C18.3566 21.3478 19.3735 20.6254 19.8862 20.095L19.9985 19.9788L20.0747 19.8362C20.8975 18.2936 21.5092 17.1083 22.5093 15.5696L20.4927 14.4368C19.8829 15.3827 19.409 16.2097 18.9399 17.0686L18.8647 15.8186L19.2241 12.8391L23.5151 15.2229L23.6216 15.2756C24.1588 15.5063 24.7942 15.2966 25.0845 14.7747C25.3746 14.2523 25.2167 13.6021 24.7368 13.2678L24.6362 13.2053L19.2974 10.2385ZM27.8638 6.62427C27.4 6.24754 26.7317 6.29005 26.3188 6.70435L26.2397 6.79224C24.7675 8.60337 23.6253 10.0598 22.7075 11.2844L24.7368 12.4241C25.6025 11.2774 26.672 9.91986 28.0308 8.24829L28.1011 8.15259C28.4222 7.66377 28.3273 7.00122 27.8638 6.62427ZM19.5181 4.5188C18.2112 4.51904 17.1509 5.57908 17.1509 6.88599C17.1512 8.19257 18.2114 9.25196 19.5181 9.2522C20.8247 9.252 21.8839 8.1926 21.8843 6.88599C21.8843 5.57906 20.825 4.51899 19.5181 4.5188Z" fill="#2683EE"/>
<path d="M15.9204 0.567627C25.2123 0.567627 27.2776 0.800986 28.9761 2.09985C30.6745 3.39873 31.1743 5.63041 31.1743 11.9915C31.1743 18.3854 30.6744 20.6164 28.9761 21.9153C27.2776 23.2141 25.1795 23.4475 15.9878 23.4475C6.62928 23.4475 4.56424 23.2142 2.86572 21.9153C1.13398 20.5831 0.66748 18.3852 0.66748 11.8577C0.667487 5.66317 1.16722 3.39872 2.86572 2.09985C4.56422 0.801007 6.66219 0.567634 15.9204 0.567627ZM19.2974 10.2385C18.3955 9.3956 15.5939 8.72714 14.8677 10.2786C13.9747 13.1287 13.9403 15.6425 14.3823 17.9397C14.3834 17.9781 14.3861 18.0171 14.3911 18.0559L14.4126 18.1721L14.4526 18.3372C14.4698 18.4035 14.4887 18.4689 14.5073 18.5334C14.5187 18.5829 14.5297 18.6326 14.5415 18.6819H14.5425L14.5513 18.6829C15.0173 20.1709 15.8901 21.1331 17.1665 21.2444C18.3566 21.3478 19.3735 20.6254 19.8862 20.095L19.9985 19.9788L20.0747 19.8362C20.8975 18.2936 21.5092 17.1083 22.5093 15.5696L20.4927 14.4368C19.8829 15.3827 19.409 16.2097 18.9399 17.0686L18.8647 15.8186L19.2241 12.8391L23.5151 15.2229L23.6216 15.2756C24.1588 15.5063 24.7942 15.2966 25.0845 14.7747C25.3746 14.2523 25.2167 13.6021 24.7368 13.2678L24.6362 13.2053L19.2974 10.2385ZM27.8638 6.62427C27.4 6.24754 26.7317 6.29005 26.3188 6.70435L26.2397 6.79224C24.7675 8.60337 23.6253 10.0598 22.7075 11.2844L24.7368 12.4241C25.6025 11.2774 26.672 9.91986 28.0308 8.24829L28.1011 8.15259C28.4222 7.66377 28.3273 7.00122 27.8638 6.62427ZM19.5181 4.5188C18.2112 4.51904 17.1509 5.57908 17.1509 6.88599C17.1512 8.19257 18.2114 9.25196 19.5181 9.2522C20.8247 9.252 21.8839 8.1926 21.8843 6.88599C21.8843 5.57906 20.825 4.51899 19.5181 4.5188Z" fill="black" fill-opacity="0.2"/>
</g>
</svg>
