<svg width="45" height="33" viewBox="0 0 45 33" fill="none" xmlns="http://www.w3.org/2000/svg">
<g id="Subtract">
<path d="M22.5952 0.120422C35.9205 0.120428 38.882 0.454986 41.3179 2.31769C43.7535 4.18044 44.4702 7.38103 44.4702 16.5032C44.4702 25.6729 43.7535 28.8729 41.3179 30.7357C38.882 32.5984 35.8723 32.9329 22.6899 32.9329C9.26946 32.9329 6.30837 32.5983 3.87256 30.7357C1.38894 28.8252 0.720218 25.6731 0.720215 16.3118C0.720215 7.42809 1.4367 4.18041 3.87256 2.31769C6.3084 0.455064 9.31763 0.120422 22.5952 0.120422ZM27.436 13.9886C26.1418 12.7801 22.1248 11.8217 21.0835 14.0462C19.8022 18.1355 19.7545 21.7417 20.3892 25.0374C20.3908 25.0913 20.3948 25.1461 20.4019 25.2005L20.4321 25.3675L20.4897 25.6038C20.5125 25.692 20.5384 25.7786 20.563 25.8646C20.5809 25.9423 20.5971 26.0206 20.6157 26.098C21.4766 29.6781 20.6167 26.097 20.6167 26.097L20.6323 26.0989C21.3007 28.2333 22.5515 29.6143 24.3823 29.7737C26.089 29.9219 27.5465 28.8859 28.2817 28.1253L28.4429 27.9583L29.4351 26.098C30.2313 24.6136 30.987 23.263 32.0444 21.636L29.1519 20.011C28.2773 21.3678 27.5982 22.5535 26.9253 23.7855L26.8169 21.9915L27.3335 17.7191L33.4858 21.137L33.6382 21.2122C34.4089 21.5435 35.3205 21.2435 35.7368 20.4944C36.1528 19.7454 35.926 18.8127 35.2378 18.3333L35.0942 18.2435L27.436 13.9886ZM39.7231 8.80597C39.0582 8.26572 38.1005 8.32719 37.5083 8.9212L37.394 9.04718C35.2823 11.645 33.6449 13.7342 32.3286 15.4905L35.2388 17.1243C36.4804 15.4796 38.0143 13.5328 39.9634 11.1351L40.063 10.9984C40.5236 10.2973 40.3879 9.34659 39.7231 8.80597ZM27.7524 5.78644C25.8783 5.78678 24.3589 7.30678 24.3589 9.18097C24.3591 11.055 25.8784 12.5742 27.7524 12.5745C29.6268 12.5745 31.1468 11.0552 31.147 9.18097C31.1469 7.30657 29.6269 5.78644 27.7524 5.78644Z" fill="#F9FFFE"/>
<path d="M22.5952 0.120422C35.9205 0.120428 38.882 0.454986 41.3179 2.31769C43.7535 4.18044 44.4702 7.38103 44.4702 16.5032C44.4702 25.6729 43.7535 28.8729 41.3179 30.7357C38.882 32.5984 35.8723 32.9329 22.6899 32.9329C9.26946 32.9329 6.30837 32.5983 3.87256 30.7357C1.38894 28.8252 0.720218 25.6731 0.720215 16.3118C0.720215 7.42809 1.4367 4.18041 3.87256 2.31769C6.3084 0.455064 9.31763 0.120422 22.5952 0.120422ZM27.436 13.9886C26.1418 12.7801 22.1248 11.8217 21.0835 14.0462C19.8022 18.1355 19.7545 21.7417 20.3892 25.0374C20.3908 25.0913 20.3948 25.1461 20.4019 25.2005L20.4321 25.3675L20.4897 25.6038C20.5125 25.692 20.5384 25.7786 20.563 25.8646C20.5809 25.9423 20.5971 26.0206 20.6157 26.098C21.4766 29.6781 20.6167 26.097 20.6167 26.097L20.6323 26.0989C21.3007 28.2333 22.5515 29.6143 24.3823 29.7737C26.089 29.9219 27.5465 28.8859 28.2817 28.1253L28.4429 27.9583L29.4351 26.098C30.2313 24.6136 30.987 23.263 32.0444 21.636L29.1519 20.011C28.2773 21.3678 27.5982 22.5535 26.9253 23.7855L26.8169 21.9915L27.3335 17.7191L33.4858 21.137L33.6382 21.2122C34.4089 21.5435 35.3205 21.2435 35.7368 20.4944C36.1528 19.7454 35.926 18.8127 35.2378 18.3333L35.0942 18.2435L27.436 13.9886ZM39.7231 8.80597C39.0582 8.26572 38.1005 8.32719 37.5083 8.9212L37.394 9.04718C35.2823 11.645 33.6449 13.7342 32.3286 15.4905L35.2388 17.1243C36.4804 15.4796 38.0143 13.5328 39.9634 11.1351L40.063 10.9984C40.5236 10.2973 40.3879 9.34659 39.7231 8.80597ZM27.7524 5.78644C25.8783 5.78678 24.3589 7.30678 24.3589 9.18097C24.3591 11.055 25.8784 12.5742 27.7524 12.5745C29.6268 12.5745 31.1468 11.0552 31.147 9.18097C31.1469 7.30657 29.6269 5.78644 27.7524 5.78644Z" fill="url(#paint0_linear_4002_3899)"/>
</g>
<defs>
<linearGradient id="paint0_linear_4002_3899" x1="22.5952" y1="0.120422" x2="22.5952" y2="32.9329" gradientUnits="userSpaceOnUse">
<stop stop-color="#AFD1FF"/>
<stop offset="1" stop-color="#3B8EFF"/>
</linearGradient>
</defs>
</svg>
