<svg width="45" height="34" viewBox="0 0 45 34" fill="none" xmlns="http://www.w3.org/2000/svg">
<path id="Subtract" d="M22.8037 0.978867C36.129 0.978872 39.0905 1.31343 41.5264 3.17613C43.962 5.03888 44.6787 8.23948 44.6787 17.3617C44.6787 26.5313 43.962 29.7314 41.5264 31.5941C39.0905 33.4568 36.0808 33.7914 22.8984 33.7914C9.47795 33.7914 6.51686 33.4567 4.08105 31.5941C1.59744 29.6836 0.928715 26.5316 0.928711 17.1703C0.928711 8.28654 1.64519 5.03885 4.08105 3.17613C6.51689 1.31351 9.52612 0.978867 22.8037 0.978867ZM28.9795 27.9066C28.5554 27.9066 28.208 28.254 28.208 28.6781C28.208 29.102 27.8614 29.4494 27.4375 29.4496H22.8105C22.3865 29.4496 22.0401 29.7961 22.04 30.2201C22.04 30.6441 22.3865 30.9915 22.8105 30.9916H27.4375C28.7144 30.9914 29.75 29.9551 29.75 28.6781C29.75 28.254 29.4035 27.9067 28.9795 27.9066ZM22.7383 7.58434L28.0693 11.4193H24.4131L14.4414 5.66637L12.9082 7.45641L23.7744 15.8939L24.4131 28.6771H26.9697L27.6094 15.8939L32.084 14.6156H41.0322V12.058H33.3623L24.4131 5.66637L22.7383 7.58434ZM34.6406 5.66637C33.2344 5.66637 32.0841 6.81685 32.084 8.22301C32.084 9.62924 33.2344 10.7796 34.6406 10.7796C36.0468 10.7796 37.1973 9.62922 37.1973 8.22301C37.1972 6.81687 36.0468 5.6664 34.6406 5.66637Z" fill="url(#paint0_linear_4002_3683)"/>
<defs>
<linearGradient id="paint0_linear_4002_3683" x1="22.893" y1="0.978867" x2="22.893" y2="33.7914" gradientUnits="userSpaceOnUse">
<stop stop-color="#68CEFF"/>
<stop offset="1" stop-color="#00ACFF"/>
</linearGradient>
</defs>
</svg>
