<svg width="45" height="34" viewBox="0 0 45 34" fill="none" xmlns="http://www.w3.org/2000/svg">
<path id="Subtract" d="M22.8037 0.978882C36.129 0.978887 39.0905 1.31345 41.5264 3.17615C43.962 5.0389 44.6787 8.23951 44.6787 17.3617C44.6787 26.5313 43.962 29.7314 41.5264 31.5941C39.0905 33.4568 36.0808 33.7914 22.8984 33.7914C9.47798 33.7914 6.51686 33.4567 4.08105 31.5941C1.59744 29.6836 0.928716 26.5316 0.928711 17.1703C0.928711 8.28655 1.64519 5.03887 4.08105 3.17615C6.51689 1.31351 9.5261 0.978882 22.8037 0.978882ZM28.9795 27.9066C28.5554 27.9066 28.208 28.254 28.208 28.6781C28.2079 29.102 27.8614 29.4484 27.4375 29.4486H22.8105C22.3865 29.4487 22.0401 29.796 22.04 30.2201C22.04 30.6442 22.3865 30.9915 22.8105 30.9916H27.4375C28.7144 30.9914 29.7499 29.955 29.75 28.6781C29.75 28.254 29.4035 27.9067 28.9795 27.9066ZM22.7383 7.58435L28.0693 11.4193H24.4131L14.4414 5.66638L12.9082 7.45642L23.7744 15.8939L24.4131 28.6771H26.9697L27.6094 15.8939L32.084 14.6156H41.0322V12.058H33.3623L24.4131 5.66638L22.7383 7.58435ZM34.6406 5.66638C33.2344 5.66638 32.084 6.81684 32.084 8.22302C32.084 9.62926 33.2344 10.7797 34.6406 10.7797C36.0468 10.7796 37.1973 9.62924 37.1973 8.22302C37.1972 6.81686 36.0468 5.66642 34.6406 5.66638Z" fill="#F9FFFE"/>
</svg>
