<svg width="32" height="24" viewBox="0 0 32 24" fill="none" xmlns="http://www.w3.org/2000/svg">
<path id="Subtract" d="M15.9204 0.756836C25.2123 0.756836 27.2776 0.990195 28.9761 2.28906C30.6745 3.58794 31.1743 5.81962 31.1743 12.1807C31.1743 18.5746 30.6744 20.8056 28.9761 22.1045C27.2776 23.4033 25.1795 23.6367 15.9878 23.6367C6.62928 23.6367 4.56424 23.4034 2.86572 22.1045C1.13398 20.7723 0.66748 18.5744 0.66748 12.0469C0.667487 5.85238 1.16722 3.58792 2.86572 2.28906C4.56422 0.990216 6.66219 0.756843 15.9204 0.756836ZM20.2271 19.5332C19.9313 19.5332 19.689 19.7756 19.689 20.0713C19.6889 20.3668 19.4473 20.6082 19.1519 20.6084H15.9253C15.6296 20.6084 15.3882 20.8508 15.3882 21.1465C15.3882 21.4422 15.6296 21.6845 15.9253 21.6846H19.1519C20.0421 21.6844 20.7641 20.9616 20.7642 20.0713C20.7642 19.7756 20.5227 19.5333 20.2271 19.5332ZM15.8755 5.3623L19.5923 8.03711H17.0435L10.0903 4.02539L9.02002 5.27344L16.5972 11.1562L17.0435 20.0713H18.8257L19.272 11.1562L22.3921 10.2656H28.6313V8.48242H23.2827L17.0435 4.02539L15.8755 5.3623ZM24.1743 4.02539C23.194 4.02553 22.3923 4.82735 22.3921 5.80762C22.3921 6.7881 23.1939 7.59068 24.1743 7.59082C25.1549 7.59082 25.9575 6.78818 25.9575 5.80762C25.9573 4.82727 25.1547 4.02539 24.1743 4.02539Z" fill="#00ACFF"/>
</svg>
