<svg width="32" height="23" viewBox="0 0 32 23" fill="none" xmlns="http://www.w3.org/2000/svg">
<path id="Subtract" d="M15.9204 0C25.2123 0 27.2776 0.233359 28.9761 1.53223C30.6745 2.8311 31.1743 5.06278 31.1743 11.4238C31.1743 17.8177 30.6744 20.0488 28.9761 21.3477C27.2776 22.6465 25.1795 22.8799 15.9878 22.8799C6.62928 22.8799 4.56424 22.6465 2.86572 21.3477C1.13398 20.0155 0.66748 17.8176 0.66748 11.29C0.667487 5.09554 1.16722 2.83109 2.86572 1.53223C4.56422 0.23338 6.66219 7.51851e-06 15.9204 0ZM11.0767 3.7041C10.8792 3.63215 10.6231 3.77981 10.5356 3.95801C10.4147 4.20501 10.4853 4.45573 10.6646 4.65039C11.2728 5.31087 12.0887 5.89298 12.7212 6.54199C13.5407 7.33018 14.3589 8.11011 15.1831 8.8916C15.5113 9.20291 15.9165 9.52527 16.2212 9.84766C16.3102 9.9416 16.3673 10.0024 16.3423 10.1406C16.3122 10.3085 16.1334 10.6368 16.0747 10.835C15.6387 12.3031 16.112 13.9071 17.5317 14.6074C17.9146 14.796 18.3253 14.906 18.73 15.0371C18.7895 15.0892 18.8073 15.3825 18.8237 15.4756C18.9916 16.4166 19.1082 17.3752 19.2427 18.3242C19.2608 18.4495 19.3165 18.6279 19.3208 18.7402C19.3247 18.8439 19.2589 18.8378 19.1733 18.8486L13.7183 18.8701C12.9503 19.0308 13.0614 20.0756 13.853 20.083C17.4911 20.0533 21.1356 20.0932 24.77 20.0234C25.4277 19.8649 25.4018 18.9893 24.7622 18.8389L20.9507 18.832C20.9361 18.8215 20.9191 18.8088 20.9097 18.7939C20.8778 18.7422 20.84 18.4411 20.8315 18.3613C20.6725 16.867 20.5984 15.361 20.4634 13.8643C20.4162 13.3418 20.2847 13.0982 19.9399 12.7168C19.802 12.5641 19.4379 12.2735 19.3579 12.1201C19.2935 11.9958 19.3193 11.9185 19.3833 11.8018V11.8008C22.1761 9.6507 25.0813 7.6529 27.981 5.64941C28.6021 5.16432 28.2341 4.18304 27.437 4.2666C27.2403 4.28725 26.7323 4.60597 26.5308 4.71777C24.2821 5.96416 22.0691 7.27902 19.8188 8.52344C19.424 8.7591 18.8753 8.75898 18.4771 8.5332C16.0183 6.91161 13.5581 5.29105 11.0767 3.7041ZM22.4312 11.7256C21.6011 11.7282 20.9305 12.4033 20.9331 13.2334C20.9358 14.0634 21.6109 14.734 22.4409 14.7314C23.2708 14.7287 23.9415 14.0536 23.939 13.2236C23.9363 12.3936 23.2612 11.723 22.4312 11.7256Z" fill="#AD76CB"/>
</svg>
