<svg width="45" height="33" viewBox="0 0 45 33" fill="none" xmlns="http://www.w3.org/2000/svg">
<g id="Subtract">
<path d="M22.5327 0.0807953C35.858 0.0808008 38.8195 0.415359 41.2554 2.27806C43.691 4.14081 44.4077 7.34141 44.4077 16.4636C44.4077 25.6332 43.691 28.8333 41.2554 30.696C38.8195 32.5587 35.8098 32.8933 22.6274 32.8933C9.20696 32.8933 6.24587 32.5586 3.81006 30.696C1.32644 28.7856 0.657718 25.6335 0.657715 16.2722C0.657715 7.38847 1.3742 4.14078 3.81006 2.27806C6.2459 0.415437 9.25513 0.0807953 22.5327 0.0807953ZM15.5854 5.39232C15.3023 5.28907 14.9335 5.501 14.8081 5.75658C14.6347 6.11082 14.7376 6.47058 14.9946 6.74974C15.8669 7.69694 17.0367 8.53187 17.9438 9.46263C19.1192 10.5931 20.2931 11.7119 21.4751 12.8327C21.9457 13.2791 22.5256 13.7416 22.9624 14.2038C23.0901 14.3387 23.1722 14.4253 23.1362 14.6238C23.093 14.8645 22.8376 15.3347 22.7534 15.6189C22.1279 17.7244 22.8062 20.0245 24.8423 21.029C25.3913 21.2995 25.9807 21.4582 26.561 21.6462C26.6461 21.7216 26.6713 22.1408 26.6948 22.2742C26.9356 23.6237 27.1035 24.9982 27.2964 26.3591C27.3223 26.5388 27.4016 26.7957 27.4077 26.9568C27.4131 27.1049 27.3202 27.0956 27.1978 27.1111L19.3726 27.1423C18.2716 27.373 18.4317 28.871 19.5669 28.8816C24.7842 28.839 30.0102 28.8957 35.2222 28.7956C36.1656 28.5685 36.1294 27.3144 35.2124 27.0984L29.7456 27.0876C29.7248 27.0725 29.7005 27.0552 29.687 27.0339C29.6412 26.9612 29.5869 26.5273 29.5747 26.4128C29.3467 24.2698 29.2401 22.1101 29.0464 19.9636C28.9787 19.2142 28.79 18.8652 28.2954 18.3181C28.0977 18.0991 27.5764 17.6827 27.4614 17.4626C27.3691 17.2844 27.4057 17.1731 27.4976 17.0056V17.0036C31.5025 13.9204 35.6694 11.0564 39.8276 8.18333C40.7184 7.48761 40.1906 6.07889 39.0474 6.19896C38.7652 6.22857 38.0376 6.68607 37.7485 6.84642C34.5235 8.63395 31.3498 10.5197 28.1226 12.3044C27.5563 12.6424 26.7689 12.6429 26.1978 12.3191C22.6716 9.99354 19.1441 7.66817 15.5854 5.39232ZM31.8706 16.8962C30.6802 16.8999 29.7186 17.868 29.7222 19.0583C29.7259 20.2488 30.6938 21.2114 31.8843 21.2077C33.0745 21.2039 34.0362 20.2358 34.0327 19.0456C34.029 17.8552 33.0611 16.8926 31.8706 16.8962Z" fill="#F9FFFE"/>
<path d="M22.5327 0.0807953C35.858 0.0808008 38.8195 0.415359 41.2554 2.27806C43.691 4.14081 44.4077 7.34141 44.4077 16.4636C44.4077 25.6332 43.691 28.8333 41.2554 30.696C38.8195 32.5587 35.8098 32.8933 22.6274 32.8933C9.20696 32.8933 6.24587 32.5586 3.81006 30.696C1.32644 28.7856 0.657718 25.6335 0.657715 16.2722C0.657715 7.38847 1.3742 4.14078 3.81006 2.27806C6.2459 0.415437 9.25513 0.0807953 22.5327 0.0807953ZM15.5854 5.39232C15.3023 5.28907 14.9335 5.501 14.8081 5.75658C14.6347 6.11082 14.7376 6.47058 14.9946 6.74974C15.8669 7.69694 17.0367 8.53187 17.9438 9.46263C19.1192 10.5931 20.2931 11.7119 21.4751 12.8327C21.9457 13.2791 22.5256 13.7416 22.9624 14.2038C23.0901 14.3387 23.1722 14.4253 23.1362 14.6238C23.093 14.8645 22.8376 15.3347 22.7534 15.6189C22.1279 17.7244 22.8062 20.0245 24.8423 21.029C25.3913 21.2995 25.9807 21.4582 26.561 21.6462C26.6461 21.7216 26.6713 22.1408 26.6948 22.2742C26.9356 23.6237 27.1035 24.9982 27.2964 26.3591C27.3223 26.5388 27.4016 26.7957 27.4077 26.9568C27.4131 27.1049 27.3202 27.0956 27.1978 27.1111L19.3726 27.1423C18.2716 27.373 18.4317 28.871 19.5669 28.8816C24.7842 28.839 30.0102 28.8957 35.2222 28.7956C36.1656 28.5685 36.1294 27.3144 35.2124 27.0984L29.7456 27.0876C29.7248 27.0725 29.7005 27.0552 29.687 27.0339C29.6412 26.9612 29.5869 26.5273 29.5747 26.4128C29.3467 24.2698 29.2401 22.1101 29.0464 19.9636C28.9787 19.2142 28.79 18.8652 28.2954 18.3181C28.0977 18.0991 27.5764 17.6827 27.4614 17.4626C27.3691 17.2844 27.4057 17.1731 27.4976 17.0056V17.0036C31.5025 13.9204 35.6694 11.0564 39.8276 8.18333C40.7184 7.48761 40.1906 6.07889 39.0474 6.19896C38.7652 6.22857 38.0376 6.68607 37.7485 6.84642C34.5235 8.63395 31.3498 10.5197 28.1226 12.3044C27.5563 12.6424 26.7689 12.6429 26.1978 12.3191C22.6716 9.99354 19.1441 7.66817 15.5854 5.39232ZM31.8706 16.8962C30.6802 16.8999 29.7186 17.868 29.7222 19.0583C29.7259 20.2488 30.6938 21.2114 31.8843 21.2077C33.0745 21.2039 34.0362 20.2358 34.0327 19.0456C34.029 17.8552 33.0611 16.8926 31.8706 16.8962Z" fill="url(#paint0_linear_4002_3781)"/>
</g>
<defs>
<linearGradient id="paint0_linear_4002_3781" x1="35.2659" y1="-0.0620612" x2="35.2659" y2="32.8933" gradientUnits="userSpaceOnUse">
<stop stop-color="#D9BCF5"/>
<stop offset="1" stop-color="#9B59B6"/>
</linearGradient>
</defs>
</svg>
