<svg width="28" height="29" viewBox="0 0 28 29" fill="none" xmlns="http://www.w3.org/2000/svg">
<g id="mdi:hand-front-right" clip-path="url(#clip0_4005_32)">
<path id="Vector" d="M23.0417 9.58846C22.2367 9.58846 21.5833 10.2418 21.5833 11.0468V17.7551H21C19.075 17.7551 17.5 19.3301 17.5 21.2551H16.3333C16.3333 18.8751 18.1183 16.9151 20.4167 16.6235V4.04679C20.4167 3.66002 20.263 3.28909 19.9895 3.0156C19.716 2.74211 19.3451 2.58846 18.9583 2.58846C18.5716 2.58846 18.2006 2.74211 17.9271 3.0156C17.6536 3.28909 17.5 3.66002 17.5 4.04679V13.0885H16.3333V1.71346C16.3333 1.32669 16.1797 0.955753 15.9062 0.682263C15.6327 0.408772 15.2618 0.255127 14.875 0.255127C14.4882 0.255127 14.1173 0.408772 13.8438 0.682263C13.5703 0.955753 13.4167 1.32669 13.4167 1.71346V13.0885H12.25V3.46346C12.25 3.07669 12.0964 2.70575 11.8229 2.43226C11.5494 2.15877 11.1784 2.00513 10.7917 2.00513C10.4049 2.00513 10.034 2.15877 9.76047 2.43226C9.48698 2.70575 9.33333 3.07669 9.33333 3.46346V14.2551H8.16667V6.96346C8.16667 6.57669 8.01302 6.20575 7.73953 5.93226C7.46604 5.65877 7.09511 5.50513 6.70833 5.50513C6.32156 5.50513 5.95063 5.65877 5.67714 5.93226C5.40365 6.20575 5.25 6.57669 5.25 6.96346V18.6301C5.25 23.9501 9.555 28.2551 14.875 28.2551C20.195 28.2551 24.5 23.9501 24.5 18.6301V11.0468C24.5 10.2418 23.8467 9.58846 23.0417 9.58846Z" fill="white"/>
</g>
<defs>
<clipPath id="clip0_4005_32">
<rect width="28" height="28" fill="white" transform="translate(0 0.255127)"/>
</clipPath>
</defs>
</svg>
