<svg width="28" height="29" viewBox="0 0 28 29" fill="none" xmlns="http://www.w3.org/2000/svg">
<g id="mdi:jump">
<path id="Vector" d="M13.9995 16.878C14.6183 16.878 15.2118 17.1238 15.6494 17.5614C16.087 17.999 16.3328 18.5925 16.3328 19.2113C16.3328 19.8302 16.087 20.4237 15.6494 20.8613C15.2118 21.2988 14.6183 21.5447 13.9995 21.5447C13.3806 21.5447 12.7871 21.2988 12.3496 20.8613C11.912 20.4237 11.6661 19.8302 11.6661 19.2113C11.6661 18.5925 11.912 17.999 12.3496 17.5614C12.7871 17.1238 13.3806 16.878 13.9995 16.878ZM27.3695 10.8813L25.5145 18.9197L17.4995 17.0647L21.9328 14.288C21.0975 12.9363 19.9296 11.8213 18.5408 11.0492C17.152 10.2772 15.5885 9.87397 13.9995 9.87801C9.39115 9.87801 5.56448 13.2147 4.80615 17.613L2.50781 17.2047C3.45281 11.7213 8.23615 7.54468 13.9995 7.54468C18.1761 7.54468 21.8511 9.74968 23.9161 13.0513L27.3695 10.8813Z" fill="white"/>
</g>
</svg>
