<svg width="110" height="110" viewBox="0 0 110 110" fill="none" xmlns="http://www.w3.org/2000/svg">
<g id="mdi:content-copy">
<path id="Vector" d="M82.6869 88.9257H41.4777V36.4777H82.6869M82.6869 28.9851H41.4777C39.4906 28.9851 37.5848 29.7745 36.1797 31.1797C34.7745 32.5848 33.9851 34.4906 33.9851 36.4777V88.9257C33.9851 90.9129 34.7745 92.8186 36.1797 94.2238C37.5848 95.6289 39.4906 96.4183 41.4777 96.4183H82.6869C84.674 96.4183 86.5798 95.6289 87.9849 94.2238C89.39 92.8186 90.1794 90.9129 90.1794 88.9257V36.4777C90.1794 34.4906 89.39 32.5848 87.9849 31.1797C86.5798 29.7745 84.674 28.9851 82.6869 28.9851ZM71.448 14H26.4926C24.5054 14 22.5997 14.7894 21.1945 16.1945C19.7894 17.5997 19 19.5054 19 21.4926V73.9406H26.4926V21.4926H71.448V14Z" fill="white"/>
</g>
</svg>
