<svg width="110" height="110" viewBox="0 0 110 110" fill="none" xmlns="http://www.w3.org/2000/svg">
<g id="mdi:swim">
<g id="Vector">
<path d="M9.16748 82.5001C19.3425 77.9168 29.5175 73.3335 39.7383 73.3335C49.9133 73.3335 60.0883 82.5001 70.2633 82.5001C80.4841 82.5001 90.6591 73.3335 100.834 73.3335V87.0835C90.6591 87.0835 80.4841 96.2501 70.2633 96.2501C60.0883 96.2501 49.9133 87.0835 39.7383 87.0835C29.5175 87.0835 19.3425 91.6668 9.16748 96.2501V82.5001ZM39.7383 59.5835C36.1633 59.5835 32.6341 60.1335 29.105 61.0501L51.655 45.2835L46.8883 39.6001C46.2466 38.821 45.8341 37.7668 45.8341 36.6668C45.8341 35.1085 46.6133 33.6876 47.8508 32.8626L74.0675 14.5293L79.3383 22.0001L57.155 37.5376L81.1258 66.0918C77.505 67.6043 73.8841 68.7501 70.2633 68.7501C60.0883 68.7501 49.9133 59.5835 39.7383 59.5835ZM82.5008 32.0835C84.932 32.0835 87.2635 33.0492 88.9826 34.7683C90.7017 36.4874 91.6675 38.819 91.6675 41.2501C91.6675 43.6813 90.7017 46.0129 88.9826 47.7319C87.2635 49.451 84.932 50.4168 82.5008 50.4168C80.0697 50.4168 77.7381 49.451 76.019 47.7319C74.2999 46.0129 73.3342 43.6813 73.3342 41.2501C73.3342 38.819 74.2999 36.4874 76.019 34.7683C77.7381 33.0492 80.0697 32.0835 82.5008 32.0835Z" fill="#1873DB"/>
<path d="M9.16748 82.5001C19.3425 77.9168 29.5175 73.3335 39.7383 73.3335C49.9133 73.3335 60.0883 82.5001 70.2633 82.5001C80.4841 82.5001 90.6591 73.3335 100.834 73.3335V87.0835C90.6591 87.0835 80.4841 96.2501 70.2633 96.2501C60.0883 96.2501 49.9133 87.0835 39.7383 87.0835C29.5175 87.0835 19.3425 91.6668 9.16748 96.2501V82.5001ZM39.7383 59.5835C36.1633 59.5835 32.6341 60.1335 29.105 61.0501L51.655 45.2835L46.8883 39.6001C46.2466 38.821 45.8341 37.7668 45.8341 36.6668C45.8341 35.1085 46.6133 33.6876 47.8508 32.8626L74.0675 14.5293L79.3383 22.0001L57.155 37.5376L81.1258 66.0918C77.505 67.6043 73.8841 68.7501 70.2633 68.7501C60.0883 68.7501 49.9133 59.5835 39.7383 59.5835ZM82.5008 32.0835C84.932 32.0835 87.2635 33.0492 88.9826 34.7683C90.7017 36.4874 91.6675 38.819 91.6675 41.2501C91.6675 43.6813 90.7017 46.0129 88.9826 47.7319C87.2635 49.451 84.932 50.4168 82.5008 50.4168C80.0697 50.4168 77.7381 49.451 76.019 47.7319C74.2999 46.0129 73.3342 43.6813 73.3342 41.2501C73.3342 38.819 74.2999 36.4874 76.019 34.7683C77.7381 33.0492 80.0697 32.0835 82.5008 32.0835Z" fill="white"/>
</g>
</g>
</svg>
