<svg width="110" height="110" viewBox="0 0 110 110" fill="none" xmlns="http://www.w3.org/2000/svg">
<g id="mdi:accelerometer">
<g id="Vector">
<path d="M55 9.16797L73.3333 27.5013H59.5833V63.4805L89.5125 80.7138L96.25 68.8888L103.125 93.9596L77.9167 100.651L84.9292 88.6888L55 71.4096L25.0708 88.6888L32.0833 100.651L6.875 93.9596L13.75 68.8888L20.4875 80.7138L50.4167 63.4805V27.5013H36.6667L55 9.16797Z" fill="#1873DB"/>
<path d="M55 9.16797L73.3333 27.5013H59.5833V63.4805L89.5125 80.7138L96.25 68.8888L103.125 93.9596L77.9167 100.651L84.9292 88.6888L55 71.4096L25.0708 88.6888L32.0833 100.651L6.875 93.9596L13.75 68.8888L20.4875 80.7138L50.4167 63.4805V27.5013H36.6667L55 9.16797Z" fill="white"/>
</g>
</g>
</svg>
