<svg width="110" height="110" viewBox="0 0 110 110" fill="none" xmlns="http://www.w3.org/2000/svg">
<g id="mdi:map">
<path id="Vector" d="M68.75 87.0833L41.25 77.4125V22.9167L68.75 32.5875M93.9583 13.75H93.225L68.75 23.375L41.25 13.75L15.4 22.4583C14.4375 22.7792 13.75 23.6042 13.75 24.6583V93.9583C13.75 94.5661 13.9914 95.149 14.4212 95.5788C14.851 96.0086 15.4339 96.25 16.0417 96.25C16.2708 96.25 16.5458 96.25 16.775 96.1125L41.25 86.625L68.75 96.25L94.6 87.5417C95.5625 87.0833 96.25 86.3958 96.25 85.3417V16.0417C96.25 15.4339 96.0086 14.851 95.5788 14.4212C95.149 13.9914 94.5661 13.75 93.9583 13.75Z" fill="white"/>
</g>
</svg>
