<svg width="110" height="110" viewBox="0 0 110 110" fill="none" xmlns="http://www.w3.org/2000/svg">
<g id="mdi:3d-rotation">
<path id="Vector" d="M55 22.918C77.7792 22.918 96.25 35.2471 96.25 50.418C96.25 58.118 91.4833 65.0846 83.8292 70.0805C88.7333 66.093 91.6667 61.0513 91.6667 55.5971C91.6667 42.5805 75.2583 32.0846 55 32.0846V45.8346L36.6667 27.5013L55 9.16797V22.918ZM55 87.0846C32.2208 87.0846 13.75 74.7555 13.75 59.5846C13.75 51.8846 18.5167 44.918 26.1708 39.9221C21.2667 43.9096 18.3333 48.9513 18.3333 54.4513C18.3333 67.4221 34.7417 77.918 55 77.918V64.168L73.3333 82.5013L55 100.835V87.0846Z" fill="white"/>
</g>
</svg>
