<svg width="110" height="110" viewBox="0 0 110 110" fill="none" xmlns="http://www.w3.org/2000/svg">
<g id="mdi:hand-front-right">
<g id="Vector">
<path d="M80.9232 39.3867C78.3476 39.3867 76.2573 41.477 76.2573 44.0526V65.5154H74.391C68.2321 65.5154 63.193 70.5545 63.193 76.7134H59.4603C59.4603 69.0987 65.1713 62.8279 72.5247 61.8947V21.6566C72.5247 20.4191 72.0331 19.2323 71.1581 18.3573C70.2831 17.4823 69.0963 16.9907 67.8588 16.9907C66.6214 16.9907 65.4346 17.4823 64.5596 18.3573C63.6846 19.2323 63.193 20.4191 63.193 21.6566V50.5847H59.4603V14.1912C59.4603 12.9538 58.9688 11.767 58.0937 10.892C57.2187 10.017 56.032 9.52539 54.7945 9.52539C53.557 9.52539 52.3703 10.017 51.4953 10.892C50.6202 11.767 50.1287 12.9538 50.1287 14.1912V50.5847H46.396V19.7902C46.396 18.5528 45.9044 17.366 45.0294 16.491C44.1544 15.616 42.9676 15.1244 41.7302 15.1244C40.4927 15.1244 39.3059 15.616 38.4309 16.491C37.5559 17.366 37.0643 18.5528 37.0643 19.7902V54.3174H33.3317V30.9882C33.3317 29.7508 32.8401 28.564 31.9651 27.689C31.0901 26.814 29.9033 26.3224 28.6658 26.3224C27.4284 26.3224 26.2416 26.814 25.3666 27.689C24.4916 28.564 24 29.7508 24 30.9882V68.3149C24 85.3358 37.7735 99.1094 54.7945 99.1094C71.8155 99.1094 85.589 85.3358 85.589 68.3149V44.0526C85.589 41.477 83.4987 39.3867 80.9232 39.3867Z" fill="#1873DB"/>
<path d="M80.9232 39.3867C78.3476 39.3867 76.2573 41.477 76.2573 44.0526V65.5154H74.391C68.2321 65.5154 63.193 70.5545 63.193 76.7134H59.4603C59.4603 69.0987 65.1713 62.8279 72.5247 61.8947V21.6566C72.5247 20.4191 72.0331 19.2323 71.1581 18.3573C70.2831 17.4823 69.0963 16.9907 67.8588 16.9907C66.6214 16.9907 65.4346 17.4823 64.5596 18.3573C63.6846 19.2323 63.193 20.4191 63.193 21.6566V50.5847H59.4603V14.1912C59.4603 12.9538 58.9688 11.767 58.0937 10.892C57.2187 10.017 56.032 9.52539 54.7945 9.52539C53.557 9.52539 52.3703 10.017 51.4953 10.892C50.6202 11.767 50.1287 12.9538 50.1287 14.1912V50.5847H46.396V19.7902C46.396 18.5528 45.9044 17.366 45.0294 16.491C44.1544 15.616 42.9676 15.1244 41.7302 15.1244C40.4927 15.1244 39.3059 15.616 38.4309 16.491C37.5559 17.366 37.0643 18.5528 37.0643 19.7902V54.3174H33.3317V30.9882C33.3317 29.7508 32.8401 28.564 31.9651 27.689C31.0901 26.814 29.9033 26.3224 28.6658 26.3224C27.4284 26.3224 26.2416 26.814 25.3666 27.689C24.4916 28.564 24 29.7508 24 30.9882V68.3149C24 85.3358 37.7735 99.1094 54.7945 99.1094C71.8155 99.1094 85.589 85.3358 85.589 68.3149V44.0526C85.589 41.477 83.4987 39.3867 80.9232 39.3867Z" fill="white"/>
</g>
</g>
</svg>
