<svg width="110" height="110" viewBox="0 0 110 110" fill="none" xmlns="http://www.w3.org/2000/svg">
<g id="mdi:tempo">
<g id="Vector">
<path d="M55.0016 8.01953L39.2808 12.2362L18.61 89.5112C18.4725 90.1987 18.335 90.932 18.335 91.6654C18.335 96.7529 22.4141 100.832 27.5016 100.832H82.5016C87.5891 100.832 91.6683 96.7529 91.6683 91.6654C91.6683 90.932 91.5308 90.1987 91.3933 89.5112L85.16 66.0904L77.9183 73.332L78.835 77.9154H61.4641L74.4808 64.8987L68.0183 58.4362L48.5391 77.9154H31.1683L47.1641 18.332H62.8391L69.5308 43.2195L77.0016 35.7029L70.7225 12.2362L55.0016 8.01953ZM51.5641 22.9154V67.6029L58.4391 60.7279V22.9154H51.5641ZM90.7058 35.7487L77.735 48.7195L74.4808 45.4654L68.0183 51.9737L80.9433 64.8987L87.4516 58.4362L84.1975 55.182L97.1683 42.2112L90.7058 35.7487Z" fill="#1873DB"/>
<path d="M55.0016 8.01953L39.2808 12.2362L18.61 89.5112C18.4725 90.1987 18.335 90.932 18.335 91.6654C18.335 96.7529 22.4141 100.832 27.5016 100.832H82.5016C87.5891 100.832 91.6683 96.7529 91.6683 91.6654C91.6683 90.932 91.5308 90.1987 91.3933 89.5112L85.16 66.0904L77.9183 73.332L78.835 77.9154H61.4641L74.4808 64.8987L68.0183 58.4362L48.5391 77.9154H31.1683L47.1641 18.332H62.8391L69.5308 43.2195L77.0016 35.7029L70.7225 12.2362L55.0016 8.01953ZM51.5641 22.9154V67.6029L58.4391 60.7279V22.9154H51.5641ZM90.7058 35.7487L77.735 48.7195L74.4808 45.4654L68.0183 51.9737L80.9433 64.8987L87.4516 58.4362L84.1975 55.182L97.1683 42.2112L90.7058 35.7487Z" fill="white"/>
</g>
</g>
</svg>
