<svg width="110" height="110" viewBox="0 0 110 110" fill="none" xmlns="http://www.w3.org/2000/svg">
<g id="mdi:wave-arrow-down">
<g id="Vector">
<path d="M91.665 32.0841H100.832V41.2508H91.665C85.34 41.2508 79.1067 39.6466 73.3317 36.6674C61.8734 42.6258 48.1234 42.6258 36.665 36.6674C30.89 39.6466 24.6109 41.2508 18.3317 41.2508H9.16504V32.0841H18.3317C24.7025 32.0841 31.0734 29.9299 36.665 25.9883C47.8484 33.8258 62.1484 33.8258 73.3317 25.9883C78.9234 29.9299 85.2942 32.0841 91.665 32.0841ZM54.9984 100.834L36.665 82.5008H50.415V50.4174H59.5817V82.5008H73.3317L54.9984 100.834Z" fill="#1873DB"/>
<path d="M91.665 32.0841H100.832V41.2508H91.665C85.34 41.2508 79.1067 39.6466 73.3317 36.6674C61.8734 42.6258 48.1234 42.6258 36.665 36.6674C30.89 39.6466 24.6109 41.2508 18.3317 41.2508H9.16504V32.0841H18.3317C24.7025 32.0841 31.0734 29.9299 36.665 25.9883C47.8484 33.8258 62.1484 33.8258 73.3317 25.9883C78.9234 29.9299 85.2942 32.0841 91.665 32.0841ZM54.9984 100.834L36.665 82.5008H50.415V50.4174H59.5817V82.5008H73.3317L54.9984 100.834Z" fill="white"/>
</g>
</g>
</svg>
