<svg width="110" height="110" viewBox="0 0 110 110" fill="none" xmlns="http://www.w3.org/2000/svg">
<g id="mdi:clock-start">
<g id="Vector">
<path d="M54.9987 4.58203C37.307 4.58203 22.9154 18.9737 22.9154 36.6654C22.9154 45.1744 26.2956 53.3349 32.3124 59.3517C38.3291 65.3685 46.4897 68.7487 54.9987 68.7487C72.6904 68.7487 87.082 54.4029 87.082 36.6654C87.082 18.9737 72.6904 4.58203 54.9987 4.58203ZM54.9987 14.4362C67.2362 14.4362 77.2279 24.382 77.2279 36.6654C77.2279 48.9487 67.2362 58.8945 54.9987 58.8945C49.1032 58.8945 43.4491 56.5525 39.2803 52.3838C35.1115 48.215 32.7695 42.5609 32.7695 36.6654C32.7695 30.7698 35.1115 25.1157 39.2803 20.947C43.4491 16.7782 49.1032 14.4362 54.9987 14.4362ZM50.4154 22.9154V39.8279L65.0362 48.2612L68.4737 42.3029L57.2904 35.8404V22.9154M18.332 73.332V109.999H27.4987V96.2487H82.4987V109.999L100.832 91.6654L82.4987 73.332V87.082H27.4987V73.332" fill="#1873DB"/>
<path d="M54.9987 4.58203C37.307 4.58203 22.9154 18.9737 22.9154 36.6654C22.9154 45.1744 26.2956 53.3349 32.3124 59.3517C38.3291 65.3685 46.4897 68.7487 54.9987 68.7487C72.6904 68.7487 87.082 54.4029 87.082 36.6654C87.082 18.9737 72.6904 4.58203 54.9987 4.58203ZM54.9987 14.4362C67.2362 14.4362 77.2279 24.382 77.2279 36.6654C77.2279 48.9487 67.2362 58.8945 54.9987 58.8945C49.1032 58.8945 43.4491 56.5525 39.2803 52.3838C35.1115 48.215 32.7695 42.5609 32.7695 36.6654C32.7695 30.7698 35.1115 25.1157 39.2803 20.947C43.4491 16.7782 49.1032 14.4362 54.9987 14.4362ZM50.4154 22.9154V39.8279L65.0362 48.2612L68.4737 42.3029L57.2904 35.8404V22.9154M18.332 73.332V109.999H27.4987V96.2487H82.4987V109.999L100.832 91.6654L82.4987 73.332V87.082H27.4987V73.332" fill="white"/>
</g>
</g>
</svg>
