<svg width="110" height="110" viewBox="0 0 110 110" fill="none" xmlns="http://www.w3.org/2000/svg">
<g id="mdi:jump">
<path id="Vector" d="M54.9984 64.1667C57.4295 64.1667 59.7611 65.1324 61.4802 66.8515C63.1993 68.5706 64.165 70.9022 64.165 73.3333C64.165 75.7645 63.1993 78.0961 61.4802 79.8151C59.7611 81.5342 57.4295 82.5 54.9984 82.5C52.5672 82.5 50.2356 81.5342 48.5166 79.8151C46.7975 78.0961 45.8317 75.7645 45.8317 73.3333C45.8317 70.9022 46.7975 68.5706 48.5166 66.8515C50.2356 65.1324 52.5672 64.1667 54.9984 64.1667ZM107.523 40.6083L100.236 72.1875L68.7484 64.9L86.165 53.9917C82.8833 48.6815 78.2954 44.3009 72.8393 41.2679C67.3832 38.2349 61.2408 36.6508 54.9984 36.6667C36.8942 36.6667 21.8609 49.775 18.8817 67.0542L9.85254 65.45C13.565 43.9083 32.3567 27.5 54.9984 27.5C71.4067 27.5 85.8442 36.1625 93.9567 49.1333L107.523 40.6083Z" fill="white"/>
</g>
</svg>
