<svg width="29" height="30" viewBox="0 0 29 30" fill="none" xmlns="http://www.w3.org/2000/svg">
<g id="mdi:axis-z-rotate-clockwise">
<path id="Vector" d="M16.9063 14.779L12.0756 19.6098L16.9063 24.4406V20.6967C22.4134 20.1412 26.5679 17.7017 26.5679 14.779C26.5679 11.8564 22.4134 9.4169 16.9063 8.86136V11.2647C21.0729 11.6753 24.1525 13.0883 24.1525 14.779C24.1525 16.4698 21.0729 17.8828 16.9063 18.2934V14.779ZM4.82944 14.779C4.82944 13.0883 7.90905 11.6753 12.0756 11.2647V8.86136C6.56851 9.4169 2.41406 11.8564 2.41406 14.779C2.41406 17.3877 5.72313 19.6098 10.3607 20.4552L9.51528 19.6098L10.9645 18.1485C7.37767 17.6292 4.82944 16.3128 4.82944 14.779ZM15.6986 2.70215H13.2833V15.9867L15.6986 13.5714V2.70215ZM15.6986 26.8559V25.6482L13.2833 23.2329V26.8559H15.6986Z" fill="white"/>
</g>
</svg>
