<svg width="29" height="30" viewBox="0 0 29 30" fill="none" xmlns="http://www.w3.org/2000/svg">
<g id="mdi:shoe-sneaker">
<path id="Vector" d="M26.5693 18.691C26.5693 18.691 26.5693 15.068 24.154 15.068C23.3327 15.068 22.3907 15.0076 21.4004 14.8506C20.2894 15.7201 18.7194 16.2757 16.9078 16.2757H16.6059L18.6469 14.2105C18.2242 14.0777 17.8136 13.9207 17.403 13.7516L15.0963 16.0583C14.6253 15.9617 14.1905 15.8288 13.792 15.6718L16.2436 13.1961C15.8813 12.9908 15.5311 12.7854 15.1808 12.5439L12.6809 15.068C12.3186 14.8144 12.0288 14.5366 11.7751 14.2467L14.2268 11.7951C13.9369 11.5294 13.6471 11.2396 13.3814 10.9377L11.123 13.1961C10.9781 12.8217 10.8694 12.4473 10.8694 12.0488C10.8694 11.0222 11.4128 10.1044 12.2703 9.36768C12.2099 9.25899 12.1374 9.1503 12.0771 9.02953L10.2293 8.09961C9.20276 9.23484 7.07723 10.044 4.52901 10.201L4.46862 10.2372H3.62324C3.62324 10.2372 2.41555 11.4449 2.41555 15.6718C2.41555 16.3602 2.41555 16.964 2.46386 17.4834H6.03862C7.36707 17.4834 8.96122 17.7974 10.5071 18.0872C11.9321 18.4012 13.4055 18.691 14.4924 18.691H26.5693ZM3.62324 21.1064C3.62324 21.1064 2.92278 21.1064 2.58462 18.691H6.03862C8.45399 18.691 12.0771 19.8987 14.4924 19.8987H26.2312C25.8206 20.6233 25.0476 21.1064 24.154 21.1064H3.62324Z" fill="white"/>
</g>
</svg>
