<svg width="44" height="34" viewBox="0 0 44 34" fill="none" xmlns="http://www.w3.org/2000/svg">
<path id="Subtract" d="M21.9565 0.565186C35.2819 0.565186 38.2434 0.899816 40.6792 2.76245C43.1151 4.62517 43.8315 7.82545 43.8315 16.948C43.8315 26.1179 43.115 29.3177 40.6792 31.1804C38.2434 33.043 35.2343 33.3777 22.0522 33.3777C8.63125 33.3777 5.66974 33.0431 3.23389 31.1804C0.750491 29.2699 0.081548 26.1175 0.081543 16.7566C0.081543 7.87321 0.798255 4.62521 3.23389 2.76245C5.66973 0.899749 8.67898 0.565191 21.9565 0.565186ZM30.4683 24.3328L25.8667 21.572L21.2632 24.3328L16.6616 21.572L12.061 24.3328V27.0925L16.6616 24.3328L21.2632 27.0925L25.8667 24.3328L30.4683 27.0925L34.145 24.3328L39.6655 27.0925V24.3328L34.145 21.572L30.4683 24.3328ZM30.6685 6.84937C30.4623 6.84937 29.8677 7.11987 29.8677 7.11987L23.7544 10.2117C22.9392 10.5337 22.6174 11.8335 23.1069 12.4832L24.8921 15.074L17.5854 18.8083L21.2632 21.5681L25.8667 18.8083L30.4683 21.5681L32.312 19.7244L26.7905 12.363L31.4966 9.54761C32.4682 9.05809 32.312 8.25196 32.312 7.76245C32.3045 7.37601 31.6492 6.84938 30.6685 6.84937ZM34.6089 12.3708C34.1858 12.3705 33.7665 12.4534 33.3755 12.615C32.9845 12.7765 32.629 13.0134 32.3296 13.3123C32.0302 13.6111 31.7926 13.9665 31.6304 14.3572C31.4683 14.7478 31.3846 15.1667 31.3843 15.5896C31.384 16.0125 31.467 16.4312 31.6284 16.822C31.79 17.2129 32.0269 17.5686 32.3257 17.8679C32.6246 18.1673 32.9799 18.4049 33.3706 18.5671C33.7612 18.7293 34.1801 18.8129 34.603 18.8132C35.4573 18.8139 36.2767 18.4754 36.8813 17.8718C37.486 17.2682 37.8259 16.4489 37.8267 15.5945C37.8273 14.7402 37.4888 13.9207 36.8853 13.3162C36.2818 12.7117 35.463 12.3717 34.6089 12.3708Z" fill="#F9FFFE"/>
</svg>
