<svg width="32" height="24" viewBox="0 0 32 24" fill="none" xmlns="http://www.w3.org/2000/svg">
<g id="Subtract">
<path d="M16.1938 0.378418C25.4858 0.378418 27.551 0.611777 29.2495 1.91064C30.948 3.20952 31.4478 5.4412 31.4478 11.8022C31.4477 18.1961 30.9479 20.4272 29.2495 21.7261C27.551 23.0249 25.4529 23.2583 16.2612 23.2583C6.90272 23.2583 4.83768 23.0249 3.13916 21.7261C1.40742 20.3939 0.940918 18.196 0.940918 11.6685C0.940925 5.47396 1.44066 3.20951 3.13916 1.91064C4.83765 0.611798 6.93563 0.378425 16.1938 0.378418ZM22.1284 16.9517L18.9204 15.0269L15.7104 16.9517L12.5024 15.0269L9.29443 16.9517V18.8765L12.5024 16.9517L15.7104 18.8765L18.9204 16.9517L22.1284 18.8765L24.6929 16.9517L28.5425 18.8765V16.9517L24.6929 15.0269L22.1284 16.9517ZM22.269 4.76025C22.1253 4.76025 21.7104 4.94971 21.7104 4.94971L17.4478 7.10498C16.8793 7.32954 16.6543 8.23599 16.9956 8.68896L18.2407 10.4956L13.146 13.0991L15.7104 15.0239L18.9204 13.0991L22.1284 15.0239L23.4146 13.7378L19.5649 8.60498L22.8462 6.64209C23.5237 6.30075 23.4146 5.73831 23.4146 5.39697C23.4093 5.12755 22.9527 4.76038 22.269 4.76025ZM25.0161 8.60986C24.7212 8.60961 24.4293 8.66819 24.1567 8.78076C23.8841 8.89341 23.636 9.05868 23.4272 9.26709C23.2185 9.47548 23.053 9.7232 22.9399 9.99561C22.8269 10.268 22.7683 10.5601 22.7681 10.855C22.7679 11.1498 22.8254 11.4419 22.938 11.7144C23.0506 11.987 23.2159 12.2351 23.4243 12.4438C23.6327 12.6526 23.8804 12.818 24.1528 12.9312C24.4252 13.0443 24.7173 13.1028 25.0122 13.103C25.6078 13.1035 26.1795 12.8675 26.6011 12.4468C27.0226 12.026 27.2596 11.4545 27.2603 10.8589C27.2608 10.2633 27.0247 9.69161 26.604 9.27002C26.1831 8.84841 25.6119 8.61038 25.0161 8.60986Z" fill="#2683EE"/>
<path d="M16.1938 0.378418C25.4858 0.378418 27.551 0.611777 29.2495 1.91064C30.948 3.20952 31.4478 5.4412 31.4478 11.8022C31.4477 18.1961 30.9479 20.4272 29.2495 21.7261C27.551 23.0249 25.4529 23.2583 16.2612 23.2583C6.90272 23.2583 4.83768 23.0249 3.13916 21.7261C1.40742 20.3939 0.940918 18.196 0.940918 11.6685C0.940925 5.47396 1.44066 3.20951 3.13916 1.91064C4.83765 0.611798 6.93563 0.378425 16.1938 0.378418ZM22.1284 16.9517L18.9204 15.0269L15.7104 16.9517L12.5024 15.0269L9.29443 16.9517V18.8765L12.5024 16.9517L15.7104 18.8765L18.9204 16.9517L22.1284 18.8765L24.6929 16.9517L28.5425 18.8765V16.9517L24.6929 15.0269L22.1284 16.9517ZM22.269 4.76025C22.1253 4.76025 21.7104 4.94971 21.7104 4.94971L17.4478 7.10498C16.8793 7.32954 16.6543 8.23599 16.9956 8.68896L18.2407 10.4956L13.146 13.0991L15.7104 15.0239L18.9204 13.0991L22.1284 15.0239L23.4146 13.7378L19.5649 8.60498L22.8462 6.64209C23.5237 6.30075 23.4146 5.73831 23.4146 5.39697C23.4093 5.12755 22.9527 4.76038 22.269 4.76025ZM25.0161 8.60986C24.7212 8.60961 24.4293 8.66819 24.1567 8.78076C23.8841 8.89341 23.636 9.05868 23.4272 9.26709C23.2185 9.47548 23.053 9.7232 22.9399 9.99561C22.8269 10.268 22.7683 10.5601 22.7681 10.855C22.7679 11.1498 22.8254 11.4419 22.938 11.7144C23.0506 11.987 23.2159 12.2351 23.4243 12.4438C23.6327 12.6526 23.8804 12.818 24.1528 12.9312C24.4252 13.0443 24.7173 13.1028 25.0122 13.103C25.6078 13.1035 26.1795 12.8675 26.6011 12.4468C27.0226 12.026 27.2596 11.4545 27.2603 10.8589C27.2608 10.2633 27.0247 9.69161 26.604 9.27002C26.1831 8.84841 25.6119 8.61038 25.0161 8.60986Z" fill="black" fill-opacity="0.2"/>
</g>
</svg>
