<svg width="44" height="34" viewBox="0 0 44 34" fill="none" xmlns="http://www.w3.org/2000/svg">
<path id="Subtract" d="M21.9565 0.563293C35.2819 0.563293 38.2434 0.897934 40.6792 2.76056C43.1151 4.62328 43.8315 7.82356 43.8315 16.9461C43.8315 26.1161 43.115 29.3158 40.6792 31.1785C38.2434 33.0412 35.2343 33.3758 22.0522 33.3758C8.63125 33.3758 5.66974 33.0412 3.23389 31.1785C0.7505 29.268 0.0815466 26.1156 0.081543 16.7547C0.081543 7.8713 0.798243 4.62331 3.23389 2.76056C5.66973 0.897857 8.67898 0.563299 21.9565 0.563293ZM30.4683 24.3309L25.8667 21.5701L21.2632 24.3309L16.6616 21.5701L12.061 24.3309V27.0906L16.6616 24.3309L21.2632 27.0906L25.8667 24.3309L30.4683 27.0906L34.145 24.3309L39.6655 27.0906V24.3309L34.145 21.5701L30.4683 24.3309ZM30.6685 6.84747C30.4623 6.84747 29.8677 7.11896 29.8677 7.11896L23.7544 10.2098C22.9392 10.5318 22.6174 11.8316 23.1069 12.4813L24.8921 15.0721L17.5854 18.8065L21.2632 21.5662L25.8667 18.8065L30.4683 21.5662L32.312 19.7225L26.7905 12.3611L31.4966 9.54572C32.4682 9.0562 32.312 8.25006 32.312 7.76056C32.3045 7.37412 31.6492 6.84749 30.6685 6.84747ZM34.6089 12.369C34.1858 12.3686 33.7665 12.4515 33.3755 12.6131C32.9845 12.7747 32.629 13.0115 32.3296 13.3104C32.0302 13.6092 31.7926 13.9646 31.6304 14.3553C31.4683 14.7459 31.3846 15.1648 31.3843 15.5877C31.384 16.0106 31.467 16.4293 31.6284 16.8201C31.79 17.2111 32.0269 17.5667 32.3257 17.866C32.6246 18.1654 32.9799 18.403 33.3706 18.5652C33.7613 18.7274 34.1801 18.811 34.603 18.8113C35.4573 18.812 36.2767 18.4735 36.8813 17.8699C37.486 17.2663 37.8259 16.447 37.8267 15.5926C37.8273 14.7384 37.4888 13.9188 36.8853 13.3143C36.2818 12.7098 35.463 12.3698 34.6089 12.369Z" fill="url(#paint0_linear_4002_3867)"/>
<defs>
<linearGradient id="paint0_linear_4002_3867" x1="21.9565" y1="0.563293" x2="21.9565" y2="33.3758" gradientUnits="userSpaceOnUse">
<stop stop-color="#AFD1FF"/>
<stop offset="1" stop-color="#3B8EFF"/>
</linearGradient>
</defs>
</svg>
