<svg width="29" height="30" viewBox="0 0 29 30" fill="none" xmlns="http://www.w3.org/2000/svg">
<g id="mdi:tempo">
<path id="Vector" d="M14.4926 2.67383L10.3502 3.7849L4.90352 24.1465C4.86729 24.3277 4.83105 24.5209 4.83105 24.7142C4.83105 26.0547 5.9059 27.1295 7.24643 27.1295H21.7387C23.0792 27.1295 24.1541 26.0547 24.1541 24.7142C24.1541 24.5209 24.1179 24.3277 24.0816 24.1465L22.4392 17.9753L20.531 19.8834L20.7726 21.0911H16.1954L19.6252 17.6613L17.9224 15.9584L12.7897 21.0911H8.21259L12.4274 5.39113H16.5577L18.3209 11.9489L20.2895 9.96827L18.6349 3.7849L14.4926 2.67383ZM13.5868 6.59882V18.3738L15.3983 16.5623V6.59882H13.5868ZM23.9005 9.98035L20.4827 13.3981L19.6252 12.5407L17.9224 14.2556L21.3281 17.6613L23.043 15.9584L22.1856 15.101L25.6033 11.6832L23.9005 9.98035Z" fill="white"/>
</g>
</svg>
