<svg width="29" height="30" viewBox="0 0 29 30" fill="none" xmlns="http://www.w3.org/2000/svg">
<g id="mdi:clock-time-four-outline">
<path id="Vector" d="M14.4919 24.4244C19.8058 24.4244 24.1534 20.0768 24.1534 14.7629C24.1534 9.4491 19.8058 5.10141 14.4919 5.10141C9.1781 5.10141 4.83042 9.4491 4.83042 14.7629C4.83042 20.0768 9.1781 24.4244 14.4919 24.4244ZM14.4919 2.68604C21.1342 2.68604 26.5688 8.12064 26.5688 14.7629C26.5688 21.4052 21.1342 26.8398 14.4919 26.8398C7.84964 26.8398 2.41504 21.4052 2.41504 14.7629C2.41504 8.12064 7.84964 2.68604 14.4919 2.68604ZM20.5304 17.0575L19.685 18.6275L13.2842 15.1252V8.72448H15.0958V14.0383L20.5304 17.0575Z" fill="white"/>
</g>
</svg>
