<svg width="44" height="33" viewBox="0 0 44 33" fill="none" xmlns="http://www.w3.org/2000/svg">
<path id="Subtract" d="M21.9775 0.0283203C35.3029 0.0283203 38.2644 0.362951 40.7002 2.22559C43.1361 4.08831 43.8525 7.28859 43.8525 16.4111C43.8525 25.5811 43.136 28.7809 40.7002 30.6436C38.2644 32.5062 35.2553 32.8408 22.0732 32.8408C8.65224 32.8408 5.69074 32.5063 3.25488 30.6436C0.771487 28.7331 0.102544 25.5807 0.102539 16.2197C0.102539 7.33634 0.819251 4.08834 3.25488 2.22559C5.69073 0.362884 8.69998 0.0283258 21.9775 0.0283203ZM30.2998 10.3496C29.5102 9.99748 28.6679 9.97983 27.9023 10.0645C26.071 10.2682 24.7129 10.7975 23.6035 11.7324C22.5405 12.6269 21.8037 13.8188 21.0752 15.0928C20.904 15.3925 20.8595 15.748 20.9502 16.0811C21.041 16.4141 21.26 16.6977 21.5596 16.8691C21.8594 17.0405 22.2156 17.086 22.5488 16.9951C22.8819 16.9042 23.1656 16.6845 23.3369 16.3848C24.0685 15.1039 24.6099 14.2887 25.2803 13.7236C25.7275 13.3473 26.2819 13.0436 27.0938 12.8418L25.3701 17.3438C25.2905 17.5516 25.2658 17.7768 25.2979 17.9971C25.33 18.2175 25.4179 18.4269 25.5537 18.6035L28.3154 22.1973L28.3701 22.3086L28.3838 22.2852L29.8779 24.2305L30.3818 29.0693C30.397 29.2414 30.4469 29.4086 30.5273 29.5615C30.6078 29.7144 30.7173 29.8501 30.8506 29.96C30.9838 30.0699 31.1383 30.1523 31.3037 30.2021C31.4689 30.2519 31.6428 30.2679 31.8145 30.25C31.9861 30.2321 32.1523 30.1804 32.3037 30.0977C32.4553 30.0148 32.5895 29.9026 32.6973 29.7676C32.8049 29.6327 32.8844 29.4775 32.9316 29.3115C32.9789 29.1454 32.9923 28.9713 32.9717 28.7998L32.4307 23.5938C32.4058 23.3543 32.3146 23.1266 32.168 22.9355L29.707 19.7334L31.4863 16.3008C32.0299 16.9498 32.6902 17.4329 33.5469 17.5371C34.3586 17.6354 35.1075 17.3548 35.6934 17.0957C35.9766 16.9707 36.279 16.8223 36.5791 16.6758L36.6641 16.6348C37.0196 16.459 37.3784 16.2893 37.7402 16.127C38.0541 15.9856 38.2991 15.7259 38.4219 15.4043C38.5447 15.0827 38.5353 14.7257 38.3955 14.4111C38.2556 14.0965 37.9968 13.8499 37.6758 13.7256C37.3548 13.6013 36.9978 13.6097 36.6826 13.748C36.2922 13.9233 35.9043 14.1056 35.5205 14.2949L35.4463 14.3311C35.1325 14.484 34.8756 14.6087 34.6406 14.7129C34.1016 14.9518 33.917 14.9587 33.8604 14.9521C33.8522 14.9508 33.8305 14.948 33.7812 14.916C33.7181 14.875 33.6067 14.7831 33.4473 14.5859C33.1165 14.1738 32.7034 13.4629 32.1475 12.2695C31.7347 11.3829 31.1285 10.72 30.2998 10.3496ZM24.165 23.0527L20.3887 22.7539C20.217 22.738 20.0435 22.7561 19.8789 22.8076C19.7145 22.8591 19.5616 22.9428 19.4297 23.0537C19.2978 23.1647 19.1892 23.3009 19.1104 23.4541C19.0315 23.6072 18.9845 23.7746 18.9707 23.9463C18.957 24.118 18.9767 24.2913 19.0303 24.4551C19.0839 24.6189 19.1696 24.7709 19.2822 24.9014C19.3949 25.0319 19.5332 25.1389 19.6875 25.2158C19.8417 25.2926 20.0098 25.3381 20.1816 25.3496L24.9395 25.7266C25.2216 25.749 25.5034 25.6794 25.7422 25.5273C25.981 25.3751 26.1639 25.1483 26.2627 24.8828L26.9951 22.9121L25.123 20.4746L24.165 23.0527ZM32.9795 4.19531C32.2025 4.19531 31.4566 4.50331 30.9072 5.05273C30.3578 5.60215 30.0498 6.34802 30.0498 7.125C30.0499 7.90178 30.358 8.64697 30.9072 9.19629C31.4566 9.74571 32.2025 10.0547 32.9795 10.0547C33.7564 10.0546 34.5014 9.74562 35.0508 9.19629C35.6001 8.64695 35.9091 7.90187 35.9092 7.125C35.9092 6.348 35.6002 5.60216 35.0508 5.05273C34.5014 4.50349 33.7563 4.19538 32.9795 4.19531Z" fill="#F9FFFE"/>
</svg>
