<svg width="44" height="33" viewBox="0 0 44 33" fill="none" xmlns="http://www.w3.org/2000/svg">
<path id="Subtract" d="M21.9775 0.0282745C35.3029 0.0282745 38.2644 0.362915 40.7002 2.22554C43.1361 4.08826 43.8525 7.28854 43.8525 16.4111C43.8525 25.5811 43.136 28.7808 40.7002 30.6435C38.2644 32.5061 35.2553 32.8408 22.0732 32.8408C8.65224 32.8408 5.69074 32.5062 3.25488 30.6435C0.771496 28.733 0.102543 25.5806 0.102539 16.2197C0.102539 7.33628 0.819239 4.08829 3.25488 2.22554C5.69073 0.362838 8.69998 0.02828 21.9775 0.0282745ZM30.2998 10.3496C29.5102 9.99745 28.6679 9.97978 27.9023 10.0644C26.071 10.2682 24.7129 10.7975 23.6035 11.7324C22.5405 12.6269 21.8037 13.8187 21.0752 15.0927C20.9039 15.3924 20.8595 15.748 20.9502 16.081C21.041 16.414 21.26 16.6977 21.5596 16.8691C21.8594 17.0405 22.2156 17.0859 22.5488 16.9951C22.8819 16.9042 23.1656 16.6845 23.3369 16.3847C24.0685 15.1038 24.6099 14.2886 25.2803 13.7236C25.7275 13.3473 26.2819 13.0436 27.0938 12.8418L25.3701 17.3437C25.2904 17.5518 25.2657 17.7775 25.2979 17.998C25.33 18.2183 25.418 18.4269 25.5537 18.6035L28.3154 22.1972L28.3701 22.3085L28.3838 22.2851L29.8779 24.2304L30.3818 29.0693C30.397 29.2414 30.4469 29.4086 30.5273 29.5615C30.6078 29.7143 30.7173 29.85 30.8506 29.9599C30.9838 30.0698 31.1383 30.1522 31.3037 30.2021C31.469 30.2519 31.6428 30.2678 31.8145 30.25C31.9861 30.232 32.1523 30.1804 32.3037 30.0976C32.4553 30.0147 32.5895 29.9025 32.6973 29.7675C32.8049 29.6326 32.8844 29.4775 32.9316 29.3115C32.9789 29.1453 32.9923 28.9713 32.9717 28.7998L32.4307 23.5937C32.4058 23.3542 32.3146 23.1265 32.168 22.9355L29.707 19.7334L31.4863 16.3007C32.0299 16.9497 32.6902 17.4329 33.5469 17.5371C34.3586 17.6354 35.1074 17.3547 35.6934 17.0957C35.9766 16.9707 36.279 16.8222 36.5791 16.6757L36.6641 16.6347C37.0196 16.459 37.3784 16.2893 37.7402 16.1269C38.0541 15.9856 38.2991 15.7259 38.4219 15.4043C38.5447 15.0826 38.5353 14.7257 38.3955 14.4111C38.2556 14.0965 37.9968 13.8498 37.6758 13.7255C37.3548 13.6013 36.9978 13.6097 36.6826 13.748C36.2922 13.9232 35.9043 14.1055 35.5205 14.2949L35.4463 14.331C35.1325 14.484 34.8756 14.6087 34.6406 14.7128C34.1016 14.9518 33.917 14.9586 33.8604 14.9521C33.8522 14.9508 33.8305 14.9479 33.7812 14.916C33.7181 14.875 33.6067 14.7831 33.4473 14.5859C33.1165 14.1738 32.7034 13.4628 32.1475 12.2695C31.7347 11.3829 31.1285 10.72 30.2998 10.3496ZM24.165 23.0537L20.3887 22.7539C20.217 22.7379 20.0435 22.7561 19.8789 22.8076C19.7145 22.8591 19.5616 22.9427 19.4297 23.0537C19.2978 23.1646 19.1893 23.3008 19.1104 23.4541C19.0315 23.6072 18.9845 23.7746 18.9707 23.9462C18.957 24.118 18.9767 24.2913 19.0303 24.455C19.0839 24.6188 19.1696 24.7709 19.2822 24.9013C19.3949 25.0318 19.5332 25.1388 19.6875 25.2158C19.8417 25.2926 20.0097 25.3381 20.1816 25.3496L24.9395 25.7275C25.2216 25.7499 25.5035 25.6794 25.7422 25.5273C25.9809 25.3751 26.1638 25.149 26.2627 24.8837L26.9951 22.9121L25.123 20.4755L24.165 23.0537ZM32.9795 4.19527C32.2025 4.19527 31.4566 4.50327 30.9072 5.05269C30.3578 5.60211 30.0498 6.34797 30.0498 7.12495C30.0499 7.90174 30.358 8.64691 30.9072 9.19624C31.4566 9.74567 32.2025 10.0546 32.9795 10.0546C33.7564 10.0546 34.5014 9.74559 35.0508 9.19624C35.6001 8.64689 35.9091 7.90184 35.9092 7.12495C35.9092 6.34795 35.6002 5.60211 35.0508 5.05269C34.5014 4.50345 33.7563 4.19533 32.9795 4.19527Z" fill="url(#paint0_linear_4002_4233)"/>
<defs>
<linearGradient id="paint0_linear_4002_4233" x1="34.7108" y1="0.283326" x2="34.7108" y2="32.8408" gradientUnits="userSpaceOnUse">
<stop stop-color="#FEC8C7"/>
<stop offset="1" stop-color="#C32726"/>
</linearGradient>
</defs>
</svg>
