<svg width="32" height="24" viewBox="0 0 32 24" fill="none" xmlns="http://www.w3.org/2000/svg">
<path id="Subtract" d="M16.1938 0.189209C25.4858 0.189209 27.551 0.422568 29.2495 1.72144C30.948 3.02031 31.4478 5.25199 31.4478 11.613C31.4477 18.0069 30.9479 20.238 29.2495 21.5369C27.551 22.8357 25.4529 23.0691 16.2612 23.0691C6.90272 23.0691 4.83768 22.8357 3.13916 21.5369C1.40742 20.2047 0.940918 18.0068 0.940918 11.4792C0.940925 5.28475 1.44066 3.0203 3.13916 1.72144C4.83765 0.422589 6.93563 0.189217 16.1938 0.189209ZM21.9976 7.3855C21.447 7.13995 20.8595 7.12826 20.3257 7.18726C19.0487 7.32935 18.1012 7.69844 17.3276 8.35034C16.5865 8.97404 16.0728 9.80488 15.5649 10.6931C15.4455 10.9021 15.4138 11.1503 15.4771 11.3826C15.5404 11.6149 15.6938 11.8129 15.9028 11.9324C16.1119 12.0518 16.36 12.0836 16.5923 12.0203C16.8246 11.9569 17.0226 11.8036 17.1421 11.5945C17.6523 10.7012 18.03 10.133 18.4976 9.73901C18.8094 9.47668 19.1953 9.26451 19.7612 9.12378L18.5601 12.2634C18.5046 12.4083 18.487 12.565 18.5093 12.7185C18.5317 12.8722 18.5933 13.0182 18.688 13.1414L20.6138 15.6472L20.6519 15.7253L20.6606 15.7087L21.7036 17.0652L22.0552 20.4392C22.0657 20.5592 22.0997 20.6764 22.1558 20.783C22.2118 20.8894 22.2885 20.9837 22.3813 21.0603C22.4742 21.1369 22.5815 21.1945 22.6968 21.2292C22.8121 21.264 22.9334 21.2749 23.0532 21.2625C23.173 21.25 23.2894 21.2138 23.395 21.156C23.5004 21.0983 23.5934 21.0204 23.6685 20.9265C23.7436 20.8324 23.7996 20.724 23.8325 20.6082C23.8654 20.4924 23.8751 20.3712 23.8608 20.2517L23.4829 16.6208C23.4655 16.454 23.4024 16.295 23.3003 16.1619L21.5835 13.9294L22.8247 11.5359C23.2037 11.9883 23.664 12.3255 24.2612 12.3982C24.8273 12.4667 25.3497 12.2703 25.7583 12.0896C25.9557 12.0025 26.1663 11.8997 26.3755 11.7976L26.4351 11.7683C26.6828 11.6458 26.9329 11.5279 27.1851 11.4148C27.4039 11.3163 27.575 11.135 27.6606 10.9109C27.7463 10.6866 27.7396 10.4369 27.6421 10.2175C27.5445 9.9984 27.3638 9.8266 27.1401 9.73999C26.9164 9.65348 26.6674 9.65917 26.4478 9.75562C26.1756 9.87772 25.9057 10.0045 25.6382 10.1365L25.5854 10.1619C25.3667 10.2685 25.1878 10.3558 25.0239 10.4285C24.6481 10.595 24.5195 10.6 24.48 10.5955C24.4743 10.5945 24.4595 10.5922 24.4253 10.5701C24.3813 10.5415 24.3031 10.4772 24.1919 10.3396C23.9613 10.0523 23.6732 9.5571 23.2856 8.72534C22.9978 8.10704 22.5755 7.64381 21.9976 7.3855ZM17.7183 16.2439L15.0854 16.0349C14.966 16.0239 14.8455 16.0372 14.731 16.073C14.6162 16.1089 14.5095 16.1675 14.4175 16.2449C14.3255 16.3223 14.2499 16.4173 14.1948 16.5242C14.1399 16.6309 14.1068 16.7473 14.0972 16.8669C14.0876 16.9867 14.1018 17.1073 14.1392 17.2214C14.1766 17.3357 14.2364 17.442 14.3149 17.533C14.3934 17.6237 14.4889 17.6981 14.5962 17.7517C14.7037 17.8053 14.8211 17.8374 14.9409 17.8455L18.2593 18.1091C18.4559 18.1247 18.6525 18.0755 18.8188 17.9695C18.9854 17.8633 19.1132 17.7054 19.1821 17.5203L19.6929 16.1453L18.3872 14.446L17.7183 16.2439ZM23.8657 3.09448C23.3239 3.09448 22.8045 3.31 22.4214 3.69312C22.0383 4.07622 21.8228 4.59567 21.8228 5.13745C21.8228 5.67918 22.0383 6.19872 22.4214 6.58179C22.8045 6.96479 23.324 7.18042 23.8657 7.18042C24.4075 7.18039 24.927 6.96484 25.3101 6.58179C25.6931 6.19872 25.9086 5.67918 25.9087 5.13745C25.9087 4.59573 25.6931 4.07621 25.3101 3.69312C24.927 3.31003 24.4075 3.09452 23.8657 3.09448Z" fill="#C32726"/>
</svg>
