<svg width="36" height="35" viewBox="0 0 36 35" fill="none" xmlns="http://www.w3.org/2000/svg">
<g id="mdi:web">
<g id="Vector">
<path d="M24.4745 20.1962C24.5899 19.2445 24.6764 18.2928 24.6764 17.3123C24.6764 16.3318 24.5899 15.3801 24.4745 14.4285H29.3482C29.5789 15.3513 29.7231 16.3174 29.7231 17.3123C29.7231 18.3072 29.5789 19.2733 29.3482 20.1962M21.9223 28.2132C22.7875 26.6127 23.4508 24.8824 23.9122 23.08H28.1658C26.7689 25.4855 24.5525 27.3077 21.9223 28.2132ZM21.5618 20.1962H14.8137C14.6695 19.2445 14.5829 18.2928 14.5829 17.3123C14.5829 16.3318 14.6695 15.3657 14.8137 14.4285H21.5618C21.6916 15.3657 21.7925 16.3318 21.7925 17.3123C21.7925 18.2928 21.6916 19.2445 21.5618 20.1962ZM18.1877 28.79C16.991 27.0597 16.0249 25.1419 15.4337 23.08H20.9418C20.3506 25.1419 19.3845 27.0597 18.1877 28.79ZM12.4201 11.5446H8.20967C9.59195 9.13236 11.8068 7.30719 14.4388 6.41141C13.5736 8.01194 12.9247 9.74224 12.4201 11.5446ZM8.20967 23.08H12.4201C12.9247 24.8824 13.5736 26.6127 14.4388 28.2132C11.812 27.3081 9.60009 25.4854 8.20967 23.08ZM7.02729 20.1962C6.79659 19.2733 6.65239 18.3072 6.65239 17.3123C6.65239 16.3174 6.79659 15.3513 7.02729 14.4285H11.901C11.7856 15.3801 11.6991 16.3318 11.6991 17.3123C11.6991 18.2928 11.7856 19.2445 11.901 20.1962M18.1877 5.82022C19.3845 7.55053 20.3506 9.4827 20.9418 11.5446H15.4337C16.0249 9.4827 16.991 7.55053 18.1877 5.82022ZM28.1658 11.5446H23.9122C23.4602 9.75899 22.792 8.03516 21.9223 6.41141C24.5755 7.31982 26.7816 9.15106 28.1658 11.5446ZM18.1877 2.89313C10.2139 2.89313 3.76855 9.38176 3.76855 17.3123C3.76855 21.1365 5.28772 24.8041 7.99184 27.5082C9.33078 28.8472 10.9203 29.9093 12.6698 30.6339C14.4192 31.3586 16.2942 31.7315 18.1877 31.7315C22.012 31.7315 25.6795 30.2124 28.3837 27.5082C31.0878 24.8041 32.6069 21.1365 32.6069 17.3123C32.6069 15.4188 32.234 13.5438 31.5093 11.7943C30.7847 10.0449 29.7226 8.45536 28.3837 7.11641C27.0447 5.77747 25.4552 4.71536 23.7057 3.99072C21.9563 3.26609 20.0813 2.89313 18.1877 2.89313Z" fill="#16B8BB"/>
<path d="M24.4745 20.1962C24.5899 19.2445 24.6764 18.2928 24.6764 17.3123C24.6764 16.3318 24.5899 15.3801 24.4745 14.4285H29.3482C29.5789 15.3513 29.7231 16.3174 29.7231 17.3123C29.7231 18.3072 29.5789 19.2733 29.3482 20.1962M21.9223 28.2132C22.7875 26.6127 23.4508 24.8824 23.9122 23.08H28.1658C26.7689 25.4855 24.5525 27.3077 21.9223 28.2132ZM21.5618 20.1962H14.8137C14.6695 19.2445 14.5829 18.2928 14.5829 17.3123C14.5829 16.3318 14.6695 15.3657 14.8137 14.4285H21.5618C21.6916 15.3657 21.7925 16.3318 21.7925 17.3123C21.7925 18.2928 21.6916 19.2445 21.5618 20.1962ZM18.1877 28.79C16.991 27.0597 16.0249 25.1419 15.4337 23.08H20.9418C20.3506 25.1419 19.3845 27.0597 18.1877 28.79ZM12.4201 11.5446H8.20967C9.59195 9.13236 11.8068 7.30719 14.4388 6.41141C13.5736 8.01194 12.9247 9.74224 12.4201 11.5446ZM8.20967 23.08H12.4201C12.9247 24.8824 13.5736 26.6127 14.4388 28.2132C11.812 27.3081 9.60009 25.4854 8.20967 23.08ZM7.02729 20.1962C6.79659 19.2733 6.65239 18.3072 6.65239 17.3123C6.65239 16.3174 6.79659 15.3513 7.02729 14.4285H11.901C11.7856 15.3801 11.6991 16.3318 11.6991 17.3123C11.6991 18.2928 11.7856 19.2445 11.901 20.1962M18.1877 5.82022C19.3845 7.55053 20.3506 9.4827 20.9418 11.5446H15.4337C16.0249 9.4827 16.991 7.55053 18.1877 5.82022ZM28.1658 11.5446H23.9122C23.4602 9.75899 22.792 8.03516 21.9223 6.41141C24.5755 7.31982 26.7816 9.15106 28.1658 11.5446ZM18.1877 2.89313C10.2139 2.89313 3.76855 9.38176 3.76855 17.3123C3.76855 21.1365 5.28772 24.8041 7.99184 27.5082C9.33078 28.8472 10.9203 29.9093 12.6698 30.6339C14.4192 31.3586 16.2942 31.7315 18.1877 31.7315C22.012 31.7315 25.6795 30.2124 28.3837 27.5082C31.0878 24.8041 32.6069 21.1365 32.6069 17.3123C32.6069 15.4188 32.234 13.5438 31.5093 11.7943C30.7847 10.0449 29.7226 8.45536 28.3837 7.11641C27.0447 5.77747 25.4552 4.71536 23.7057 3.99072C21.9563 3.26609 20.0813 2.89313 18.1877 2.89313Z" fill="url(#paint0_linear_370_5505)"/>
</g>
</g>
<defs>
<linearGradient id="paint0_linear_370_5505" x1="3.76855" y1="17.3123" x2="32.6069" y2="17.3123" gradientUnits="userSpaceOnUse">
<stop stop-color="#02234F"/>
<stop offset="1" stop-color="#0550B5"/>
</linearGradient>
</defs>
</svg>
