<svg width="101" height="27" viewBox="0 0 101 27" fill="none" xmlns="http://www.w3.org/2000/svg">
<path d="M17.6737 0.254802C28.2836 0.254802 30.6414 0.521002 32.5808 2.00411C34.5202 3.48721 35.0907 6.03511 35.0907 13.2985C35.0907 20.6 34.5202 23.1479 32.5808 24.631C30.6414 26.1141 28.2456 26.3803 17.7497 26.3803C7.06377 26.3803 4.70602 26.1141 2.76657 24.631C0.789095 23.1098 0.256698 20.6 0.256698 13.1464C0.256698 6.07314 0.827123 3.48721 2.76657 2.00411C4.70602 0.521002 7.1018 0.254802 17.6737 0.254802ZM17.6737 6.83371C12.4258 6.83371 11.361 6.87174 10.2962 7.17596C8.39477 7.67033 7.97645 8.84921 7.97645 13.983C7.97645 17.1394 8.24265 18.1662 9.1173 18.8887C10.1441 19.6873 11.361 19.8014 17.7497 19.8014C23.9484 19.8014 25.2413 19.6493 26.2301 18.8887C27.1047 18.2042 27.3709 17.1014 27.3709 14.0211C27.3709 10.3703 27.1808 8.92527 26.4963 8.05062C25.6977 6.94779 24.823 6.83371 17.6737 6.83371ZM53.8927 0.254802C64.5026 0.254802 66.8604 0.521002 68.7998 2.00411C70.7393 3.48721 71.3097 6.03511 71.3097 13.2985C71.3097 20.6 70.7393 23.1479 68.7998 24.631C66.8604 26.1141 64.4646 26.3803 53.9688 26.3803C43.2828 26.3803 40.9251 26.1141 38.9856 24.631C37.0081 23.1098 36.4757 20.6 36.4757 13.1464C36.4757 6.07314 37.0462 3.48721 38.9856 2.00411C40.9251 0.521002 43.3208 0.254802 53.8927 0.254802ZM53.8927 6.83371C48.6448 6.83371 47.58 6.87174 46.5152 7.17596C44.6138 7.67033 44.1955 8.84921 44.1955 13.983C44.1955 17.1394 44.4617 18.1662 45.3363 18.8887C46.3631 19.6873 47.58 19.8014 53.9688 19.8014C60.1674 19.8014 61.4604 19.6493 62.4491 18.8887C63.3238 18.2042 63.59 17.1014 63.59 14.0211C63.59 10.3703 63.3998 8.92527 62.7153 8.05062C61.9167 6.94779 61.0421 6.83371 53.8927 6.83371ZM73.2272 0.635085H100.037V6.60554H80.9469V11.3971H99.1245L99.0865 17.2154H80.9469V26H73.2272V0.635085Z" fill="#02234F"/>
<path d="M17.6737 0.254802C28.2836 0.254802 30.6414 0.521002 32.5808 2.00411C34.5202 3.48721 35.0907 6.03511 35.0907 13.2985C35.0907 20.6 34.5202 23.1479 32.5808 24.631C30.6414 26.1141 28.2456 26.3803 17.7497 26.3803C7.06377 26.3803 4.70602 26.1141 2.76657 24.631C0.789095 23.1098 0.256698 20.6 0.256698 13.1464C0.256698 6.07314 0.827123 3.48721 2.76657 2.00411C4.70602 0.521002 7.1018 0.254802 17.6737 0.254802ZM17.6737 6.83371C12.4258 6.83371 11.361 6.87174 10.2962 7.17596C8.39477 7.67033 7.97645 8.84921 7.97645 13.983C7.97645 17.1394 8.24265 18.1662 9.1173 18.8887C10.1441 19.6873 11.361 19.8014 17.7497 19.8014C23.9484 19.8014 25.2413 19.6493 26.2301 18.8887C27.1047 18.2042 27.3709 17.1014 27.3709 14.0211C27.3709 10.3703 27.1808 8.92527 26.4963 8.05062C25.6977 6.94779 24.823 6.83371 17.6737 6.83371ZM53.8927 0.254802C64.5026 0.254802 66.8604 0.521002 68.7998 2.00411C70.7393 3.48721 71.3097 6.03511 71.3097 13.2985C71.3097 20.6 70.7393 23.1479 68.7998 24.631C66.8604 26.1141 64.4646 26.3803 53.9688 26.3803C43.2828 26.3803 40.9251 26.1141 38.9856 24.631C37.0081 23.1098 36.4757 20.6 36.4757 13.1464C36.4757 6.07314 37.0462 3.48721 38.9856 2.00411C40.9251 0.521002 43.3208 0.254802 53.8927 0.254802ZM53.8927 6.83371C48.6448 6.83371 47.58 6.87174 46.5152 7.17596C44.6138 7.67033 44.1955 8.84921 44.1955 13.983C44.1955 17.1394 44.4617 18.1662 45.3363 18.8887C46.3631 19.6873 47.58 19.8014 53.9688 19.8014C60.1674 19.8014 61.4604 19.6493 62.4491 18.8887C63.3238 18.2042 63.59 17.1014 63.59 14.0211C63.59 10.3703 63.3998 8.92527 62.7153 8.05062C61.9167 6.94779 61.0421 6.83371 53.8927 6.83371ZM73.2272 0.635085H100.037V6.60554H80.9469V11.3971H99.1245L99.0865 17.2154H80.9469V26H73.2272V0.635085Z" fill="url(#paint0_linear_370_5398)"/>
<defs>
<linearGradient id="paint0_linear_370_5398" x1="-1" y1="11" x2="100" y2="11" gradientUnits="userSpaceOnUse">
<stop stop-color="#02234F"/>
<stop offset="1" stop-color="#0550B5"/>
</linearGradient>
</defs>
</svg>
