<svg width="247" height="65" viewBox="0 0 247 65" fill="none" xmlns="http://www.w3.org/2000/svg">
<path d="M42.991 0.475179C69.1708 0.475179 74.9885 1.13202 79.774 4.79156C84.5596 8.45109 85.9671 14.738 85.9671 32.6603C85.9671 50.6765 84.5596 56.9634 79.774 60.6229C74.9885 64.2825 69.0769 64.9393 43.1787 64.9393C16.8113 64.9393 10.9935 64.2825 6.20799 60.6229C1.32861 56.8696 0.0149265 50.6765 0.0149265 32.285C0.0149265 14.8318 1.42244 8.45109 6.20799 4.79156C10.9935 1.13202 16.9051 0.475179 42.991 0.475179ZM42.991 16.7085C30.0419 16.7085 27.4145 16.8023 24.7872 17.553C20.0955 18.7729 19.0633 21.6817 19.0633 34.3493C19.0633 42.1376 19.7201 44.6711 21.8783 46.454C24.4118 48.4245 27.4145 48.706 43.1787 48.706C58.4737 48.706 61.664 48.3307 64.1037 46.454C66.2619 44.765 66.9188 42.0438 66.9188 34.4432C66.9188 25.4351 66.4496 21.8694 64.7606 19.7112C62.79 16.99 60.6319 16.7085 42.991 16.7085ZM132.361 0.475179C158.541 0.475179 164.358 1.13202 169.144 4.79156C173.929 8.45109 175.337 14.738 175.337 32.6603C175.337 50.6765 173.929 56.9634 169.144 60.6229C164.358 64.2825 158.447 64.9393 132.548 64.9393C106.181 64.9393 100.363 64.2825 95.5778 60.6229C90.6984 56.8696 89.3847 50.6765 89.3847 32.285C89.3847 14.8318 90.7922 8.45109 95.5778 4.79156C100.363 1.13202 106.275 0.475179 132.361 0.475179ZM132.361 16.7085C119.412 16.7085 116.784 16.8023 114.157 17.553C109.465 18.7729 108.433 21.6817 108.433 34.3493C108.433 42.1376 109.09 44.6711 111.248 46.454C113.782 48.4245 116.784 48.706 132.548 48.706C147.843 48.706 151.034 48.3307 153.474 46.454C155.632 44.765 156.289 42.0438 156.289 34.4432C156.289 25.4351 155.819 21.8694 154.13 19.7112C152.16 16.99 150.002 16.7085 132.361 16.7085ZM180.068 1.41352H246.221V16.1455H199.117V27.9686H243.969L243.876 42.3253H199.117V64.001H180.068V1.41352Z" fill="url(#paint0_linear_370_5491)"/>
<defs>
<linearGradient id="paint0_linear_370_5491" x1="-3.08594" y1="26.5457" x2="246.13" y2="26.5457" gradientUnits="userSpaceOnUse">
<stop stop-color="#02234F"/>
<stop offset="1" stop-color="#0550B5"/>
</linearGradient>
</defs>
</svg>
