<svg width="333" height="88" viewBox="0 0 333 88" fill="none" xmlns="http://www.w3.org/2000/svg">
<path d="M58.1224 0.594797C93.4187 0.594797 101.262 1.48037 107.714 6.41426C114.166 11.3482 116.064 19.8243 116.064 43.9878C116.064 68.2777 114.166 76.7539 107.714 81.6878C101.262 86.6217 93.2922 87.5073 58.3754 87.5073C22.826 87.5073 14.9824 86.6217 8.53037 81.6878C1.95184 76.6274 0.180695 68.2777 0.180695 43.4817C0.180695 19.9509 2.07835 11.3482 8.53037 6.41426C14.9824 1.48037 22.9525 0.594797 58.1224 0.594797ZM58.1224 22.4811C40.664 22.4811 37.1217 22.6076 33.5794 23.6196C27.2539 25.2643 25.8623 29.1861 25.8623 46.265C25.8623 56.7653 26.7478 60.1811 29.6576 62.5848C33.0733 65.2415 37.1217 65.621 58.3754 65.621C78.9965 65.621 83.2979 65.115 86.5871 62.5848C89.4969 60.3076 90.3825 56.6388 90.3825 46.3915C90.3825 34.2465 89.7499 29.4391 87.4727 26.5294C84.816 22.8606 81.9063 22.4811 58.1224 22.4811ZM178.613 0.594797C213.91 0.594797 221.753 1.48037 228.205 6.41426C234.657 11.3482 236.555 19.8243 236.555 43.9878C236.555 68.2777 234.657 76.7539 228.205 81.6878C221.753 86.6217 213.783 87.5073 178.866 87.5073C143.317 87.5073 135.473 86.6217 129.021 81.6878C122.443 76.6274 120.672 68.2777 120.672 43.4817C120.672 19.9509 122.569 11.3482 129.021 6.41426C135.473 1.48037 143.444 0.594797 178.613 0.594797ZM178.613 22.4811C161.155 22.4811 157.613 22.6076 154.07 23.6196C147.745 25.2643 146.353 29.1861 146.353 46.265C146.353 56.7653 147.239 60.1811 150.149 62.5848C153.564 65.2415 157.613 65.621 178.866 65.621C199.488 65.621 203.789 65.115 207.078 62.5848C209.988 60.3076 210.874 56.6388 210.874 46.3915C210.874 34.2465 210.241 29.4391 207.964 26.5294C205.307 22.8606 202.397 22.4811 178.613 22.4811ZM242.934 1.8599H332.124V21.722H268.616V37.6623H329.087L328.961 57.0183H268.616V86.2422H242.934V1.8599Z" fill="white"/>
</svg>
