<svg width="49" height="37" viewBox="0 0 49 37" fill="none" xmlns="http://www.w3.org/2000/svg">
<g id="Frame 77">
<path id="Subtract" d="M24.127 0.78125C38.541 0.781252 41.7441 1.1466 44.3789 3.18066C47.0137 5.21475 47.7891 8.70925 47.7891 18.6709C47.7891 28.6846 47.0137 32.1788 44.3789 34.2129C41.7441 36.2469 38.4894 36.6123 24.2305 36.6123C9.71321 36.6123 6.50982 36.2469 3.875 34.2129C1.18849 32.1267 0.464844 28.6844 0.464844 18.4619C0.464851 8.76104 1.24016 5.21473 3.875 3.18066C6.50983 1.14666 9.76463 0.78125 24.127 0.78125ZM31.5742 13.9951H27.7676L33.3184 10.002L31.5742 8.00586L22.2578 14.6611H14.2715V17.3232H23.5889L28.2471 18.6543L28.9121 31.9639H31.5742L32.2402 18.6543L43.5537 9.86914L41.9561 8.00586L31.5742 13.9951ZM20.9268 8.00586C19.4627 8.00586 18.2646 9.20387 18.2646 10.668C18.2647 12.132 19.4627 13.3301 20.9268 13.3301C22.3907 13.3299 23.5888 12.1319 23.5889 10.668C23.5889 9.20396 22.3907 8.006 20.9268 8.00586Z" fill="#F9FFFE"/>
</g>
</svg>
