<svg width="48" height="37" viewBox="0 0 48 37" fill="none" xmlns="http://www.w3.org/2000/svg">
<g id="Frame 75">
<path id="Subtract" d="M23.8594 0.33252C38.2734 0.332522 41.4765 0.697868 44.1113 2.73193C46.7461 4.76602 47.5215 8.26052 47.5215 18.2222C47.5215 28.2358 46.7461 31.7301 44.1113 33.7642C41.4765 35.7982 38.2218 36.1636 23.9629 36.1636C9.44563 36.1636 6.24225 35.7981 3.60742 33.7642C0.92091 31.6779 0.197266 28.2357 0.197266 18.0132C0.197272 8.31231 0.972585 4.766 3.60742 2.73193C6.24225 0.697928 9.49705 0.33252 23.8594 0.33252ZM14.4902 14.7544C13.3976 17.3246 14.0684 17.7582 14.0811 17.7661L34.4238 29.9888C35.3093 30.5208 36.3629 30.5023 37.2012 30.0288L25.5693 23.0405C23.1762 21.6024 20.3052 18.249 17.9121 16.811L14.4902 14.7544ZM20.5527 6.99658C20.5527 6.99658 18.6366 7.47445 16.1201 11.6626C15.7104 12.3445 15.3511 12.9427 15.0898 13.4858L18.6318 15.6147C19.9479 16.4056 21.3404 17.6653 22.6992 18.8726C23.9243 20.0321 25.2121 21.1971 26.2891 21.8442L38.2549 29.0337C38.2672 29.0131 40.4048 25.4402 38.0186 24.0063C37.2049 23.5174 36.3077 22.896 35.4199 22.1509C33.8014 22.351 31.915 21.9667 30.1201 20.8882L29.8213 20.7085L33.0723 19.8774C32.7327 19.4943 32.4194 19.094 32.1133 18.6821L28.4541 19.5952C28.0449 19.2191 27.694 18.8279 27.3926 18.4351L31.2949 17.4419C31.0582 17.0228 30.8341 16.6104 30.6309 16.1626L26.6514 17.1753C26.4434 16.7084 26.3209 16.2609 26.2422 15.8228L30.1309 14.853C30.0019 14.4173 29.8872 13.9577 29.8037 13.5005L26.2217 14.3931C26.3009 13.9361 26.4162 13.5007 26.6533 13.106C27.2645 12.0888 28.3495 11.5022 29.6377 11.2827C29.6426 11.1392 29.6354 10.988 29.6475 10.8325L28.3701 8.81104C26.6772 9.32465 24.0899 8.86096 21.4717 7.49951H21.3896L20.5527 6.99658Z" fill="#F9FFFE"/>
</g>
</svg>
