<svg width="49" height="36" viewBox="0 0 49 36" fill="none" xmlns="http://www.w3.org/2000/svg">
<g id="Frame 76">
<path id="Subtract" d="M24.3457 0.0175781C38.7598 0.0175805 41.9628 0.382927 44.5977 2.41699C47.2324 4.45108 48.0078 7.94558 48.0078 17.9072C48.0078 27.9209 47.2324 31.4152 44.5977 33.4492C41.9628 35.4833 38.7081 35.8486 24.4492 35.8486C9.93196 35.8486 6.72857 35.4832 4.09375 33.4492C1.40724 31.363 0.683594 27.9208 0.683594 17.6982C0.683601 7.99737 1.45891 4.45106 4.09375 2.41699C6.72858 0.382987 9.98338 0.0175781 24.3457 0.0175781ZM14.8887 25.8506H18.9736V28.5742H13.5273V31.2979H35.3145C39.0726 31.2977 42.123 28.2474 42.123 24.4893H39.3994C39.3994 26.7496 37.5747 28.5741 35.3145 28.5742H32.5908V25.8506H36.6758L36.6621 17.6807L28.8867 15.7334C28.314 15.591 27.779 15.326 27.3184 14.957C26.8577 14.588 26.4817 14.1237 26.2178 13.5957H21.6973V12.2344H25.8096L25.7822 10.8721H21.6973V9.51074H25.7822V5.42578H14.8887V25.8506ZM29.8672 28.5742H21.6973V25.8506H29.8672V28.5742Z" fill="#F9FFFE"/>
</g>
</svg>
