<svg width="49" height="37" viewBox="0 0 49 37" fill="none" xmlns="http://www.w3.org/2000/svg">
<g id="OOF">
<path id="Subtract" d="M24.5068 0.587402C38.9209 0.587405 42.124 0.952751 44.7588 2.98682C47.3936 5.0209 48.1689 8.5154 48.1689 18.4771C48.1689 28.4907 47.3936 31.985 44.7588 34.019C42.124 36.0531 38.8693 36.4185 24.6104 36.4185C10.0931 36.4185 6.88971 36.053 4.25488 34.019C1.56837 31.9328 0.844727 28.4906 0.844727 18.2681C0.844733 8.5672 1.62005 5.02088 4.25488 2.98682C6.88971 0.952811 10.1445 0.587402 24.5068 0.587402ZM29.2686 25.9634L24.1924 22.9175L19.1113 25.9634L14.0342 22.9175L8.95801 25.9634V29.0093L14.0342 25.9634L19.1113 29.0093L24.1924 25.9634L29.2686 29.0093L33.3262 25.9634L39.418 29.0093V25.9634L33.3262 22.9175L29.2686 25.9634ZM29.4902 6.67139C29.2628 6.67139 28.6064 6.97021 28.6064 6.97021L21.8604 10.3813C20.961 10.7368 20.6057 12.1703 21.1455 12.8872L23.1152 15.7466L15.0537 19.8667L19.1113 22.9126L24.1924 19.8667L29.2686 22.9126L31.3037 20.8784L25.2109 12.7554L30.4043 9.64795C31.4759 9.10775 31.3037 8.2183 31.3037 7.67822C31.2952 7.25184 30.5722 6.67146 29.4902 6.67139ZM33.8379 12.7632C33.3712 12.7628 32.9089 12.8545 32.4775 13.0327C32.0462 13.211 31.6536 13.4725 31.3232 13.8022C30.9929 14.1321 30.7308 14.5244 30.5518 14.9556C30.3729 15.3865 30.2807 15.8484 30.2803 16.3149C30.2799 16.7818 30.3715 17.2448 30.5498 17.6763C30.7281 18.1075 30.9897 18.4994 31.3193 18.8296C31.6491 19.1599 32.0406 19.4221 32.4717 19.6011C32.9028 19.7801 33.3652 19.8722 33.832 19.8726C34.7745 19.8733 35.6786 19.5002 36.3457 18.8345C37.0128 18.1685 37.3887 17.2644 37.3896 16.3218C37.3905 15.3791 37.0165 14.4743 36.3506 13.8071C35.6845 13.1399 34.7806 12.764 33.8379 12.7632Z" fill="#F9FFFE"/>
</g>
</svg>
