<svg width="207" height="55" viewBox="0 0 207 55" fill="none" xmlns="http://www.w3.org/2000/svg">
<path d="M36.0738 0.670663C58.0515 0.670663 62.9354 1.22208 66.9528 4.29422C70.9702 7.36637 72.1518 12.6442 72.1518 27.6898C72.1518 42.8142 70.9702 48.092 66.9528 51.1642C62.9354 54.2363 57.9727 54.7877 36.2313 54.7877C14.0961 54.7877 9.21218 54.2363 5.19475 51.1642C1.09856 48.0133 -0.00426545 42.8142 -0.00426545 27.3747C-0.00426545 12.7229 1.17733 7.36637 5.19475 4.29422C9.21218 1.22208 14.1749 0.670663 36.0738 0.670663ZM36.0738 14.2984C25.2031 14.2984 22.9975 14.3772 20.7918 15.0074C16.8532 16.0314 15.9867 18.4734 15.9867 29.1077C15.9867 35.6459 16.5381 37.7728 18.3498 39.2694C20.4767 40.9237 22.9975 41.16 36.2313 41.16C49.0713 41.16 51.7496 40.8449 53.7977 39.2694C55.6095 37.8515 56.1609 35.5671 56.1609 29.1865C56.1609 21.6243 55.767 18.6309 54.3491 16.8191C52.6949 14.5347 50.8831 14.2984 36.0738 14.2984ZM111.099 0.670663C133.077 0.670663 137.961 1.22208 141.978 4.29422C145.995 7.36637 147.177 12.6442 147.177 27.6898C147.177 42.8142 145.995 48.092 141.978 51.1642C137.961 54.2363 132.998 54.7877 111.256 54.7877C89.1213 54.7877 84.2373 54.2363 80.2199 51.1642C76.1237 48.0133 75.0209 42.8142 75.0209 27.3747C75.0209 12.7229 76.2025 7.36637 80.2199 4.29422C84.2373 1.22208 89.2 0.670663 111.099 0.670663ZM111.099 14.2984C100.228 14.2984 98.0226 14.3772 95.817 15.0074C91.8783 16.0314 91.0118 18.4734 91.0118 29.1077C91.0118 35.6459 91.5632 37.7728 93.375 39.2694C95.5019 40.9237 98.0226 41.16 111.256 41.16C124.096 41.16 126.775 40.8449 128.823 39.2694C130.635 37.8515 131.186 35.5671 131.186 29.1865C131.186 21.6243 130.792 18.6309 129.374 16.8191C127.72 14.5347 125.908 14.2984 111.099 14.2984ZM151.149 1.45839H206.684V13.8258H167.14V23.7512H204.793L204.715 35.8034H167.14V54H151.149V1.45839Z" fill="#142B4E"/>
</svg>
