<svg width="182" height="49" viewBox="0 0 182 49" fill="none" xmlns="http://www.w3.org/2000/svg">
<path d="M32.0329 0.905737C51.2467 0.905737 55.5164 1.3878 59.0286 4.07359C62.5408 6.75939 63.5738 11.3734 63.5738 24.5269C63.5738 37.7493 62.5408 42.3633 59.0286 45.0491C55.5164 47.7349 51.1778 48.217 32.1707 48.217C12.8192 48.217 8.54949 47.7349 5.0373 45.0491C1.45624 42.2945 0.492113 37.7493 0.492113 24.2515C0.492113 11.4423 1.52511 6.75939 5.0373 4.07359C8.54949 1.3878 12.8881 0.905737 32.0329 0.905737ZM32.0329 12.8196C22.5294 12.8196 20.6011 12.8885 18.6729 13.4394C15.2295 14.3347 14.472 16.4696 14.472 25.7665C14.472 31.4824 14.9541 33.3418 16.538 34.6503C18.3974 36.0965 20.6011 36.3031 32.1707 36.3031C43.3959 36.3031 45.7374 36.0276 47.5279 34.6503C49.1118 33.4107 49.5939 31.4136 49.5939 25.8354C49.5939 19.2242 49.2496 16.6073 48.01 15.0234C46.5638 13.0262 44.9798 12.8196 32.0329 12.8196ZM97.6228 0.905737C116.837 0.905737 121.106 1.3878 124.618 4.07359C128.131 6.75939 129.164 11.3734 129.164 24.5269C129.164 37.7493 128.131 42.3633 124.618 45.0491C121.106 47.7349 116.768 48.217 97.7606 48.217C78.4091 48.217 74.1394 47.7349 70.6272 45.0491C67.0461 42.2945 66.082 37.7493 66.082 24.2515C66.082 11.4423 67.115 6.75939 70.6272 4.07359C74.1394 1.3878 78.478 0.905737 97.6228 0.905737ZM97.6228 12.8196C88.1193 12.8196 86.191 12.8885 84.2628 13.4394C80.8194 14.3347 80.0619 16.4696 80.0619 25.7665C80.0619 31.4824 80.544 33.3418 82.1279 34.6503C83.9873 36.0965 86.191 36.3031 97.7606 36.3031C108.986 36.3031 111.327 36.0276 113.118 34.6503C114.702 33.4107 115.184 31.4136 115.184 25.8354C115.184 19.2242 114.839 16.6073 113.6 15.0234C112.154 13.0262 110.57 12.8196 97.6228 12.8196ZM132.636 1.5944H181.187V12.4064H146.616V21.0836H179.534L179.465 31.6202H146.616V47.5283H132.636V1.5944Z" fill="url(#paint0_linear_370_5581)"/>
<defs>
<linearGradient id="paint0_linear_370_5581" x1="-1.83203" y1="36.0283" x2="181.168" y2="36.0283" gradientUnits="userSpaceOnUse">
<stop stop-color="#02234F"/>
<stop offset="1" stop-color="#0550B5"/>
</linearGradient>
</defs>
</svg>
